<?xml version="1.0" encoding="utf-8"?>
<!-- Generator: Adobe Illustrator 27.2.0, SVG Export Plug-In . SVG Version: 6.00 Build 0)  -->
<svg version="1.1" id="Capa_1" xmlns="http://www.w3.org/2000/svg" xmlns:xlink="http://www.w3.org/1999/xlink" x="0px" y="0px"
	 viewBox="0 0 5780 4092" style="enable-background:new 0 0 5780 4092;" xml:space="preserve">
<style type="text/css">
	.st0{fill:#006EF9;}
</style>
<g>
	<path class="st0" d="M4314.6,248c-1.9,3.3-3,5.8-4.5,7.9c-47.7,64.6-100.5,124.7-160.2,178.5c-17.6,15.9-34.7,32.3-52.9,47.4
		c-59.1,48.6-126.6,80.3-200.6,99c-42.7,10.8-86.3,14-130.1,17c-60.6,4.1-121.2-0.3-181.7-0.3c-59.9,0.1-119.9,0.6-179.6,5.2
		c-70.1,5.4-139.8,13.4-208.8,27.5c-36.9,7.5-73.5,15.9-108.7,28.9c-50.8,18.7-102.4,35.7-151.5,58.9c-37,17.5-74.4,34.3-110.7,53
		c-25.3,13-49.3,28.5-73.6,43.4c-19.6,12-38.8,24.6-58.1,37c-6.4,4.2-12.6,8.8-18.8,13.2c-10.8,7.6-21.7,15-32.4,22.9
		c-11.8,8.7-23.2,17.7-34.8,26.7c-30.8,23.9-61.8,47.6-90.3,74.3c-12.2,11.4-25.3,21.8-37.8,33c-12.4,11.2-24.5,22.7-36.7,34.1
		c-7.1,6.7-14.2,13.3-21.3,20c-3.6,3.3-7.4,6.4-10.8,9.8c-26.6,27.5-53.6,54.6-79.6,82.7c-26.4,28.6-51.9,58.1-77.5,87.4
		c-17.8,20.4-35.9,40.7-52.6,62.1c-36,46.1-70.9,92.9-106.6,139.2c-30.6,39.7-58.8,81.2-86.5,122.9c-40,60.4-78.6,121.7-115.6,184
		c-41.3,69.5-80.5,140.1-118.2,211.5c-52.7,99.8-101.6,201.4-146.2,305.1c-44.1,102.4-85.4,205.8-125.5,309.7
		c-23.8,61.8-44.3,124.6-63.7,187.9c-62.5,202.9-124.8,406-187.7,608.8c-67.1,216.1-134.9,432-202.4,647.9
		c-1.8,5.9-4.1,11.7-5.9,16.5c-7.4,5.2-14.6,3.5-21.4,3.5c-43.9,0.2-87.8,0.1-131.7,0.1c-241,0-482.1,0-723.1-0.1
		c-8,0-16.5,1.9-24.8-2.6c0.4-10.4,4.8-19.2,7.9-28.2c42.1-120.2,84.5-240.2,126.6-360.4c80.1-228.6,160.1-457.2,240.2-685.7
		c54.1-154.4,108.2-308.7,162.4-463c33.9-96.5,67.4-193.2,102.4-289.3c19.3-53,40.9-105.1,61.8-157.4
		c17.6-43.9,34.7-88.1,53.7-131.5c44-100.8,90.8-200.4,142.5-297.6c19-35.6,38.5-71,58.2-106.2c12.6-22.5,26.3-44.3,38.8-66.8
		c49.7-88.9,106.9-172.9,165.5-256c26.9-38.1,56.2-74.5,84.8-111.4c61.3-79.4,124.3-157.4,190.4-232.9
		c34.8-39.8,71.1-78.5,107.8-116.6c78-80.7,161-156.2,248.9-226c94.5-75.1,193.3-144,298.9-202.6c85.2-47.3,172-91.7,262.7-127.9
		c109.5-43.7,221.6-79,336.6-104.3c45.5-10,91.4-18.7,137.4-25.8c45.4-7,91.1-12,136.7-16.8c29-3,58.3-3.6,87.5-5.8
		c53.6-4,107.2-4.2,160.8-3.2c37.6,0.7,75.3,1.4,112.7,4.6c60.3,5.1,120.5,11.2,180.6,19.2c114,15.3,226,39.3,336.8,69.7
		c83.3,22.9,165.2,49.6,245.3,82c24.5,9.9,49,19.9,73.5,29.9C4306.8,243.5,4310.2,245.7,4314.6,248z"/>
	<path class="st0" d="M5627,2217.2c-7.4-12-13.9-22.4-20.2-32.9c-38.9-64.5-82.6-125.5-132.3-182.3
		c-38.7-44.3-81.2-83.9-131.2-115.6c-31.7-20.1-65.9-32.9-103-37.7c-26.7-3.4-52.7,0.7-78,9.6c-36.1,12.8-72.1,25.8-108.3,38.1
		c-74.5,25.3-149.5,48.8-226.4,65.6c-42.8,9.4-86.1,16-129.7,20.6c-49.4,5.2-98.9,5.9-148.1,2.4c-71.3-5-140.2-20.9-205.4-51.5
		c-40.6-19.1-78.3-42.5-112.8-70.9c-12.9-10.6-24.4-22.8-36.4-34.4c-8.5-8.2-14.6-11-17.2-7c-4.2,6.7,1,11.9,3.9,17
		c24.1,43.4,53.5,83.1,86.6,120c33.1,36.8,68.9,70.9,109.3,99.9c56,40.2,116,71.8,184,86.2c40.3,8.5,81,11.5,122.4,8
		c76.7-6.5,146.2-32.9,211.4-72.3c10.7-6.5,21.1-13.4,31.7-20.1c0.5-0.3,1.3,0,3.1,0c2.9,6.5,1,13.3-0.8,19.6
		c-7.6,27.5-14.6,55.2-23.6,82.2c-23.9,71.6-57,139.1-95,204.1c-29.9,51.1-60.8,101.5-98.3,147.6c-22.9,28.1-47.4,54.8-73.5,79.9
		c-33.7,32.3-69.4,62.4-107.9,88.9c-52.8,36.5-108.6,67.7-167.7,92.9c-85.1,36.4-174,58.5-265.5,70.7c-32.4,4.3-65,7.5-97.9,6.9
		c-13-0.2-20.4-5.2-25.6-16.7c-23.5-51.3-44.8-103.5-64.1-156.6c-26.4-72.7-48.1-146.8-64.8-222.3c-11-49.6-20.9-99.4-28-149.7
		c-5.4-38.6-11.1-77.1-15.3-115.8c-3.1-28.3-3.6-56.9-5.9-85.4c-4.3-54.2-4.3-108.6-3.1-162.9c0.8-36.2,3.5-72.3,5.8-108.4
		c1.7-26.4,3.7-52.8,6.4-79c2.4-23.5,5.9-46.9,9.2-70.3c11.3-80,28.4-158.9,49.7-236.8c13.9-51,30.3-101.3,48.1-151.2
		c25.1-70.2,52.6-139.4,85.1-206.5c24.8-51.4,51.5-101.8,79.8-151.5c49.7-87.3,105.1-170.8,164.6-251.5
		c46.7-63.3,96.4-124.4,148.2-183.6c22.5-25.6,46.5-50,69.5-75.2c6.4-7,13-8.8,22.3-6.7c34.7,7.9,68.5,18.7,102.1,30.2
		c89.3,30.4,173.9,71.1,256.3,116.6c80.1,44.3,154.5,96.8,225.5,154.4c52,42.2,100.7,88,146.5,136.7
		c46.7,49.8,90.4,102.1,129.4,158.3c30.2,43.5,59.3,87.6,85.1,133.8c34.6,62.1,64.1,126.6,89.8,192.9c30.2,78,55.3,157.7,73.4,239.3
		c8.7,39.4,15.8,79.2,22,119c6.5,41.2,11.4,82.7,16.3,124.2c2.3,19.3,3.6,38.8,4.3,58.3c2.3,60.5,6.4,121.1,4.2,181.7
		c-1.1,31.3-3.6,62.5-5.4,93.8c-0.8,14.6-1.4,29.2-2.1,43.8C5629.4,2209.1,5629.8,2212.5,5627,2217.2z"/>
	<path class="st0" d="M1367.2,4049.8c-4-9.2,0.4-15.6,2.3-21.9c15.2-51.4,30.9-102.6,46.6-153.8c31.7-103.1,63.6-206.2,95.1-309.3
		c75-245.6,149.8-491.2,224.8-736.8c3.1-10,6.1-20,9.2-29.9c2-6.5,6-10.7,12.7-12.7c7.3-2.2,14.5-4.9,21.8-7.3
		c72.2-24,141.8-54.5,208-91.9c156.2-88.4,296.4-197.8,420.6-327.4c43.9-45.8,85.2-93.9,123.5-144.5
		c105.8-139.9,235.1-254.3,379.3-352.8c132.4-90.5,274.6-161.7,425.8-214.8c65.1-22.9,131.8-40,199.2-54.6c3.3-0.7,6.9-0.4,10-0.5
		c4.5,5.7,2.1,11.4,1,16.5c-14.1,62.6-21.4,126.2-28.6,189.8c-5.4,47.7-10.6,95.5-15.1,143.2c-1.9,19.4-2.5,38.9-2.8,58.4
		c-1.3,80.8-2.5,161.5,8.6,241.9c13.1,94.5,29.4,188.4,48.9,281.8c1,4.6,1.3,9.4,1.8,13.4c-5.8,6.6-13.1,7.2-19.5,9.3
		c-60.8,20.3-120.9,42.3-179.3,68.7c-111.5,50.4-215.4,113.6-312.8,187.7c-74.5,56.7-143.5,119.4-207,188
		c-27.9,30.1-53.7,62.1-80.6,93.2c-13.2,15.2-26.8,30.2-40.2,45.2c-80.7,90.5-163.4,179.1-250.6,263.3
		c-107.9,104.1-220.4,202.8-340.3,292.9c-117.7,88.4-240.8,168.5-372.8,234.1c-120.9,60.1-247.1,104.7-380,129.9
		C1373.9,4049.4,1371.1,4049.5,1367.2,4049.8z"/>
	<path class="st0" d="M3638.5,2834.5c1.8,3.8,3.9,7.4,5.3,11.2c23,61.4,396.6,1186.7,400.2,1205.8c-2.8,1-5.8,2.7-8.9,3
		c-5.5,0.5-11.1,0.2-16.7,0.2c-288.3,0-576.7,0-865,0c-8.3,0-16.6-0.2-23.8-0.4c-7-6.8-8-14.6-10.2-21.9
		c-20.3-68-40.6-136-60.7-204.1c-44.4-150.1-88.8-300.2-133.1-450.3c-4.1-14-7.6-28.3-12.5-42c-4.3-12-1.6-21.3,6.3-30.7
		c30.9-36.9,63.8-71.9,98.6-105.1c112.6-107.4,238.6-196.1,376.6-267.9c68-35.4,138.4-65.5,210.7-90.8
		C3615.9,2837.9,3626.5,2835,3638.5,2834.5z"/>
	<path class="st0" d="M3588.1,1124c-1.5,85.1-33.2,156.3-95.4,213.5c-37.7,34.7-82.8,56.7-133.1,66.1c-84.7,15.8-162-2.1-230.4-55
		c-47.8-37-79.6-85.2-96.5-143.1c-7.8-26.8-13.4-54.3-12.4-82.3c3.3-100.6,44.7-181.5,128.4-238.6c44.7-30.5,95.1-45.2,149.6-46.2
		c55.1-1,106.4,12.1,153.2,41.1c69.9,43.4,113.4,105.8,129.5,186.6C3584.8,1085.1,3585.8,1104.7,3588.1,1124z"/>
</g>
</svg>
