<?xml version="1.0" encoding="utf-8"?>
<!-- Generator: Adobe Illustrator 27.2.0, SVG Export Plug-In . SVG Version: 6.00 Build 0)  -->
<svg version="1.1" id="Capa_1" xmlns="http://www.w3.org/2000/svg" xmlns:xlink="http://www.w3.org/1999/xlink" x="0px" y="0px"
	 viewBox="0 0 1080 713" style="enable-background:new 0 0 1080 713;" xml:space="preserve">
<style type="text/css">
	.st0{fill:#ED3338;}
	.st1{fill:#1063AC;}
	.st2{fill:#F9F7F9;}
</style>
<g>
	<path class="st0" d="M492.2,83.5c6.3-1.7,12.7-1,19.1-1.5c8.6-0.7,17.3-0.5,25.9-0.1c4.4,0.2,5.9-1.3,6.9-5.3
		c5.2-19.9,10.7-39.7,16.2-59.5c1.9-6.8,2.5-7.3,9.9-6.3c8.5,1.1,17,1.8,25.6,2c3.8,0.1,5.1,1.2,5,5.2c-0.5,21-0.5,41.9-0.9,62.9
		c-0.1,4.2,0.9,5.6,5.4,5.9c10,0.8,20,2.2,29.8,4.2c4.4,0.9,6.8-0.6,9.3-3.6c14.9-18.6,29.9-37.2,44.7-55.9c2.6-3.3,5-4.1,9.3-3.2
		c11.1,2.2,21.9,5.4,33.7,6.7c-2.6,5.3-5,10.3-7.4,15.3c-8.3,17-16.5,33.9-24.9,50.8c-1.3,2.7-1,3.6,1.9,4.5
		c11.2,3.5,22.4,7.1,33.6,10.9c3.5,1.2,6.2,0.4,8.9-1.9c20.4-17.1,40.9-34,61.3-51.1c1.7-1.5,2.9-2,5.1-1
		c11.1,4.8,22.1,9.6,33.3,14.1c3.6,1.5,1.1,2.7,0.2,3.8c-10.5,12.4-21.1,24.8-31.6,37.2c-6,7-12,14.1-18.2,21
		c-2.4,2.6,0.2,3.2,1.4,3.9c4,2.3,8.2,4.1,12.1,6.4c6.6,3.9,13.5,7.3,19.8,11.8c1.9,1.4,2.8-0.2,3.8-0.7
		c26.4-13.6,52.8-27.2,79.1-40.9c3.4-1.8,6.1-2.1,9.4,0.5c6.2,4.9,12.8,9.3,19.3,13.8c2.2,1.6,2.7,2.6,0.1,4.5
		c-14.5,10.6-28.8,21.5-43.1,32.2c-9.1,6.9-18.2,13.7-27.5,20.7c6.4,5.8,13,11.1,18.3,17.7c1,1.2,2.3,0.6,3.6,0.3
		c15.4-3.7,30.8-7.3,46.2-10.9c17.5-4.1,35-8.2,52.5-12.3c2.6-0.6,4.9-0.3,6.6,2.1c5.4,7.3,10.8,14.6,16.2,21.9
		c2,2.7,1.8,3.9-1.8,5.4c-25.3,11-50.4,22.3-75.6,33.5c-3.4,1.5-6.9,2.9-10.4,4.3c-2.2,0.9-3.1,1.5-1.7,4.3
		c3.3,6.6,6.3,13.4,8.8,20.3c1.3,3.7,3.2,4.7,6.9,4.6c33.5-0.4,66.9-0.7,100.4-1.1c4.5-0.1,7.1,0,7.2,6c0.2,7.4,2,14.9,3.8,22.2
		c0.9,3.7-0.9,4.3-3.4,4.8c-14.1,2.8-28.2,5.5-42.3,8.2c-8.2,1.6-16.5,2.7-24.5,4.8c-11.6,3-23.4,4.6-35.1,7
		c-1.5,0.3-2.2,0.9-2.5,2.5c-1.2,8.8-1.1,17.7-3.3,26.4c-0.6,2.2,0.4,3.6,3,4.1c12.8,2.5,25.6,5.3,38.4,7.9
		c18.1,3.7,36.2,7.3,54.3,11c8,1.6,8,1.7,5.3,9.3c-2,5.7-4.2,11.4-6.1,17.1c-1,2.9-2.5,3.8-5.7,3.7c-34.1-0.9-68.2-1.4-102.3-2.3
		c-4.1-0.1-6.6,0.9-8.8,4.7c-3.4,5.9-7.5,11.5-11.7,16.9c-1.5,2-1.7,2.3,0.5,3.9c3.1,2.3,6.6,3.6,9.9,5.3
		c14.5,7.5,29.2,14.4,43.7,21.8c9.9,5,19.7,10.4,30.1,15.9c-7,6.4-13.6,12.4-20.2,18.4c-1.9,1.8-4.1,1.1-6.1,0.6
		c-17.3-4.2-34.5-8.6-51.8-12.9c-14.6-3.6-29.1-7.1-43.6-11.1c-2.1-0.6-2.9,0-4.2,1c-7.9,6.4-15.9,12.5-24.9,18.4
		c2.9,2.2,5.7,4.4,8.5,6.5c18.4,14.2,36.8,28.6,55.4,42.7c3.4,2.6,2.3,4-0.5,5.6c-6.6,3.8-13.3,7.5-19.9,11.5c-2.3,1.4-4,1.3-6.2,0
		c-18-10.2-37.1-18.4-55.3-28.3c-7.1-3.8-14.1-7.6-21.4-11.1c-2.8-1.3-5.3-1.2-7.9,0.2c-9.8,5.2-20.1,9.3-30.3,13.6
		c-2.9,1.2-3.2,1.4-1,4c15,17.9,29.8,36.1,44.7,54.2c2,2.4,1.5,3-1.4,4.3c-6.6,3-13.6,4.3-20.2,7.2c-2.8,1.2-5.1,0.3-7.6-2
		c-18.1-16.7-36.4-33.2-54.6-49.8c-2.6-2.4-5.3-1.9-8.3-1.1c-13.7,3.8-27.2,7.9-41.2,10.4c-2.9,0.5-3.6,1.7-2.3,4.8
		c6.9,16,13.6,32.1,20.3,48.2c0.6,1.5,1.2,3.1,1.7,4.6c2.5,7.3,2.5,7.2-5.1,8.2c-4.7,0.6-9.3,1.6-14,2.6c-2.3,0.5-3.6,0.4-5.3-1.8
		c-13.6-18.6-27.5-37-41.3-55.5c-1.3-1.8-3-2.6-5.2-2.2c-10.9,1.9-21.9,1.9-32.8,3.1c-2.3,0.2-2.1,1.6-2.1,3.1
		c-0.2,16-2.7,32-2.2,48c0.1,4.1-1.4,8.2-0.9,12.4c0.1,1.4-0.4,2.1-1.9,2.3c-6.7,0.6-13.5,1.3-20.2,2c-2.6,0.3-3.9-0.4-5.1-3.3
		c-7.7-19.8-15.6-39.5-22.7-59.5c-0.2-0.5-0.1-1.1-0.4-1.4c-4.4-3.9-9.8-1-14.6-1.9c-1.6-0.3-3.1-0.3-4.1,2.2
		c-7.5,16.9-14.4,34-22,50.8c-5.1,11.2-1.8,11.2-15.1,8.9c-4.3-0.7-8.6-1.1-12.9-1.2c-3.4-0.1-4.4-1.4-4.4-4.8
		c-0.1-18.3-0.5-36.6-0.6-54.9c0-3.1-0.1-4.9-4.3-5.3c-7.8-0.7-15.5-2.4-23.3-3.7c-3.7-0.6-6.3,0.4-8.8,3.7
		c-11.9,15.7-24.3,31.2-36.4,46.8c-2.9,3.7-5.7,6.4-11.1,4.5c-4.4-1.6-9.2-2.3-13.9-3c-2.8-0.5-3.4-2.1-2.7-4.2
		c4.1-11.4,6.4-23.3,10.2-34.7c2.4-7.2,3.5-14.9,6.2-22.1c0.7-2-0.4-2.6-1.6-2.8c-11.4-2.4-22.4-6.1-33.4-9.7c-1.7-0.6-3,0-4.5,1.1
		c-19.5,14.6-39.2,29.2-58.8,43.7c-2.6,1.9-5.1,2.6-8.5,1.1c-4.3-1.8-8.8-3.5-13.1-5.5c-2.4-1.2-2.9-2-1.1-4.3
		c8.9-11.5,17.6-23.2,26.3-34.8c3.9-5.2,7.7-10.3,11.7-15.4c1.6-2.1,1.7-3.1-1.1-4.3c-8.3-3.6-16.5-7.3-24.2-11.9
		c-2.8-1.7-5.7-1.3-8.5,0.1c-22.1,11.4-44.4,22.6-66.3,34.4c-4.6,2.4-7.8,2.6-12-0.2c-6.4-4.2-13.3-7.7-19.9-11.6
		c-0.8-0.5-1.5-1.3-2.3-2.1c18.9-14.2,37.8-28.3,56.6-42.4c0.8-0.6,1.7-1.1,2.4-1.7c4.6-3.7,4.6-3.8-0.4-7c-2.7-1.8-5.5-3.7-7.8-6
		c-4.1-4.1-8.5-4.1-13.8-2.8c-17.6,4.3-35.6,7.4-53.4,10.7c-7.2,1.3-14.4,3-21.6,4.3c-4.3,0.8-8.7,1.2-13,2.5
		c-2.2,0.7-4.1-0.1-5.7-1.9c-4.8-5.1-9.6-10.2-14.7-14.9c-2.3-2.1-1.8-2.6,0.7-4c11.2-6.1,22.2-12.4,33.3-18.6
		c11.7-6.5,23.3-13.1,35.1-19.4c3.9-2.1,4.1-4,1.3-7.4c-3.2-3.8-6.2-7.8-8.4-12.1c-2.7-5.3-6.9-6.4-11.9-5.3c-7.9,1.7-16,2.1-24,2.8
		c-13.9,1.1-27.8,3-41.9,3.2c-7.1,0.1-14.2,1.8-21.4,2.8c-2.6,0.4-4.7,0.2-6.1-2.8c-3.3-7.3-6.9-14.5-10.4-21.7
		c-0.8-1.6-1.1-2.7,1.5-3.4c20.4-5.6,40.7-11.7,61.2-17.3c8.3-2.2,16.6-4.5,24.8-7c3.2-1,4.8-2,3.5-6.3c-2.3-7.2-3.7-14.6-3.3-22.3
		c0.2-2.7-1.2-3.9-4.1-4.2c-15.3-1.6-30.7-2.6-46.1-4.6c-9.1-1.2-18.3-1.8-27.5-2.3c-6.9-0.4-13.7-1.3-20.5-1.9
		c-1.7-0.2-3.1-1.3-3-2.8c0.8-9.5,1.5-19.1,1.7-28.6c0.1-3.3,3.2-2.7,5.5-2.7c21.3-0.3,42.6-0.6,63.9-0.8c9.8-0.1,19.6-0.4,29.5-0.3
		c2.7,0,4.2-1.1,4.6-3.3c1.5-8.6,5-16.6,8.3-24.5c1.2-2.8-0.4-3.2-2-3.7c-16.2-6.1-32.5-12-48.7-18.1c-11.2-4.2-22.3-8.4-33.5-12.5
		c-3.8-1.4-5.7-2.8-2.6-7.1c3.8-5.2,7.3-10.8,10.4-16.5c1.5-2.7,3.3-3.1,5.7-2.6c28.7,5.5,57.5,11.1,86.1,16.8
		c7.1,1.4,12.6,0.6,16.8-6.1c2.8-4.4,6.9-8.1,10.6-11.9c2.5-2.5,2.2-3.8-0.7-5.6c-9.9-6.3-19.6-12.8-29.4-19.3
		c-11.3-7.5-22.5-15-33.7-22.5c-2.3-1.5-4.6-3.1-7.1-4.7c6.9-5.9,13.5-11.6,20.1-17.4c2-1.8,3.9-1.4,6-0.4
		c19.2,8.9,38.7,17.1,58.2,25.2c7.1,2.9,14.1,6.3,21,9.6c3,1.4,5.7,1,8.2-0.9c9.2-6.9,19.2-12.7,29-18.6c2.5-1.5,2.7-2.4,0.9-4.3
		c-17.1-18.6-34.1-37.3-51.6-56.4c10.5-5.1,21-10.2,31.5-15.1c1.7-0.8,3.5,0.2,5,1.4c18.2,14,36.5,28,54.8,42.1c3,2.3,6,4.6,8.9,7.2
		c1.3,1.1,2,0.4,3,0c11.1-4.3,22.1-8.7,33.3-12.9c2.3-0.9,2.5-1.7,1.6-4c-8.5-19.7-16.7-39.4-25.2-59.1c-1.4-3.3-0.9-4.7,2.5-5.7
		c8.5-2.4,17.3-3.3,25.5-6.9c2.7-1.2,5.1,0.3,7.2,2.9c14.5,18.8,29.3,37.5,43.8,56.3c1.3,1.7,1.9,2.5,4.6,1.8
		c13.4-3.6,27.3-5.3,41.1-7.2c2.6-0.4,3.6-1.2,3.4-4.1c-0.6-11.4-0.1-23-1.4-34.3c-1.1-9.9,0-19.8-1.8-29.6
		c-0.5-2.9,0.5-3.6,3.6-4.1c9.3-1.4,18.8-1.1,27.9-3.7c5.2-1.5,6.8,1.9,7.9,5.8c5.9,21,11.7,42,17.5,63c0.1,0.3,0,0.7,0,1
		c-3.8,0-7.6,0-11.5,0c-15.2,0.2-27.8,15.2-27.3,28.7c0.1,2.5-1.3,11.4-0.9,15.5c0.4,4.1-0.9,6.1-4.7,7.8
		c-10.5,4.8-19.5,11.7-25.1,22c-1.8,3.3-3.9,5.2-7.2,5.5c-6.6,0.6-12.7,2.9-19.1,4c-10.1,1.9-19.8,5.1-29.7,7.7
		c-10.9,2.9-21.5,7.2-31.9,11.5c-11.7,4.8-23.2,10.2-34.4,16.3c-23.5,12.7-44.8,28.2-63,47.9c-5.8,6.3-11.1,12.9-15.6,20.1
		c-7.5,11.9-12.9,24.8-15.8,38.6c-0.7,3.5-1.3,2.9-1.5,10.4c-0.6,7.2,0.2,2.5,0.4,14.2c-0.4,4.2,0.6,7.5,1.2,11.3
		c0.4,2.7,0.8,4.8,1.4,7.5c2.6,13.1,8,24.9,15.5,36c15.6,23.4,36.2,41.3,59.2,56.9c15.1,10.2,31.1,18.7,47.7,25.9
		c24.5,10.6,49.8,18.5,75.8,24.8c25.5,6.1,51.3,10.1,77.3,12.4c12.8,1.1,25.6,2.4,38.5,2.2c21.4-0.4,42.8,0.6,64.1-1.9
		c8.5-1,17.2-0.7,25.6-2.3c17-3.1,34.2-5.4,51.1-9.4c18.3-4.3,36.4-9.4,53.9-15.7c17.6-6.4,34.9-13.8,51.2-23.3
		c29.7-17.2,57-36.9,75.3-67c9.1-15,14.8-30.9,17.5-48.1c0.5-5-0.1-20.6-0.6-23.3c-4.8-25.7-16.4-48-34-67.2
		c-13.9-15.2-30.2-27.4-47.7-38.2c-18.3-11.3-37.5-20.5-57.4-28.5c-14.6-5.9-29.7-10.7-44.9-14.8c-11-2.9-34.6-8.9-35.7-8.5
		c-1.3-0.9-5.3-1.4-6-1c-1.2-1.1-14.3-2.4-18-3c-2.4-0.4-5.1-0.1-6.6-2.4c-5.8-9-14-14.9-23.6-19.1c-3-1.3-4-3.3-3.7-6.6
		c0.9-8.1,0.2-16.1-2.2-23.9c-5.8-18.7-18.4-24.2-37.5-21.2c-8.1,1.3-14.8,5-21.4,9.2c-1.6,1-3.5,2.2-5.2,1
		C507.2,89.7,499.9,86.2,492.2,83.5z M495.2,521.9c-7.3-1.7-8.5-1.4-7.7,3.3c1.2,7.6-0.7,25.2-0.2,26.5c-0.3,0.8-0.8,1.5-1.3,2.3
		c-0.4,0.7-0.9,1.3-1.1,2c-1,2.2-2.1,5.8,1.4,6.6c5.6,1.2,11.4,1.3,17.1,1.7c1.1,0.1,1.8-0.8,1.7-1.9c-0.1-4.6,0.2-9.2,1-13.7
		c0.3-1.6-0.2-3-2.4-2.8c-1.7,0.1-3.8-0.7-3.6,2.4c0.1,1.6-0.6,3.2-1,4.7c-0.6,2.4-3,1.6-4.5,2.4c-0.4,0.2-1.8-1.2-1.3-2.2
		c2.3-5.7,0.5-11.7,1.5-17.5c0.7-4.2,3.8-8.2,2.2-12.7C496.9,521.4,496.2,521.3,495.2,521.9z M596.1,525.8c-1.1,4.5-1.5,8,0,12
		c0,2.7-0.3,5.3,0.1,8c0.6,4.3-0.2,9.2,2.5,12.8c3.1,4.1,7.6,4,12.1,2.1c3.9-1.6,5.9-4.6,6.1-8.7c0.4-8-0.2-16-1.1-23.8
		c-0.3-3.1-0.6-7.1-4.3-8.9C605.5,516.4,598.7,519.4,596.1,525.8z M509.2,557.7c0.9,4.5,3.5,7.7,8.2,7.9c6.4,0.3,9.3-1.9,10.8-8
		c2.2-9,2.2-18.3,1.7-27.5c-0.3-4.9-3.8-7.1-9.3-7.3c-7.4-0.2-8.9,1-10.5,6.8c-1.6,6-0.1,12.2-0.8,18.2
		C507.7,551.1,507.6,554.4,509.2,557.7z M191,387.1c-0.7,8.8-6.1,15.1-11.9,20.6c-4.9,4.6-5.8,4.9-1.5,10.4c0.9,1.1,1.1,3.6,3,3.1
		c2-0.5,2.7-2.4,3.1-4.6c0.7-3.9,3.6-6.5,6.2-9.3c-1.2,6.2-2.4,12.3-4.6,18c-1.6,4.3,2,5.5,3.7,7c1.8,1.5,2.5-2,4-3.1
		c0.9-0.6,1.4-1.9,2-2.8c3.4-4.7,6.7-9.4,10.1-14.1c0.7-1,1.7-2,2.9-1.4c1.6,0.9,0.1,1.9-0.4,2.8c-2,3.6-2.2,7.1-1.1,11.3
		c1.2,4.1,4,7.6,4.1,12c0,2.3-1.1,3.7-3.1,3.6c-1.8,0-3.2-1.4-3.8-3.3c-0.4-1.4,0.4-2.6,1.1-3.7c1.9-2.9-1-3.8-2.2-5.1
		c-1.6-1.8-2.9-0.1-4.1,1.1c-3.1,3.3-3.7,7-1.5,10.8c2.5,4.3,5.4,8.3,10.2,10.4c0.3,0.2,0.9-0.2,1.4-0.3c7-1.6,10.9-9.6,8.6-16.7
		c-1.3-4-4-7.5-4.5-11.8c-0.2-1.5-0.1-3,2.1-3.1c1.9-0.1,3.3,0.3,3.8,2.4c0.3,1.5-0.3,2.8-0.7,4.3c-0.8,3,2.1,3.9,3.8,5.1
		c1.7,1.2,2.3-1,3.2-2.1c4-4.6,0.7-8.8-1.1-12.7c-1.7-3.7-4.6-6.5-9.4-5.9c-1.7,0.2-3.4,0-5.3,0c0.5-0.9,0.6-1.2,0.8-1.4
		c1.4-1.4,3.2-2.8,1.2-5c-2-2.1-2.7-6.1-5.9-5.9c-1.7,0.1-3.4,2.9-3.5,5.9c-0.1,3.2-2.4,5.5-5.7,8.3c0.1-5.8,1.8-10.1,3.3-14.4
		c1.5-4.3,2.2-8.2-1.7-11.6c-2.9-2.5-4.4-6-6.5-9.1c-0.7-1.1-1-2.9-2.6-2.4c-1.5,0.4-3.4,1.4-3.4,3.2c-0.1,2.9-1.9,4.6-3.7,6.2
		c-4.6,4.1-7.7,9.5-13.9,12.3c-5.3,2.3-0.1,6.2,1.1,9.3c0.5,1.3,1.1,3,3,2.7c1.8-0.3,2.6-1.7,3.3-3.3C178,397,184.5,392.1,191,387.1
		z M856.2,454.9c4.1-4.7,7.6-9.2,11.6-13.1c4.1-3.9,4.6-7.6,1.4-12c-0.9-1.3-1.4-3.8-3-3.6c-2.1,0.3-3.2,2.7-4.4,4.4
		c-1,1.5,0.9,2.7,0.9,4.2c0,2-0.7,3.7-2.4,4.7c-2,1.1-2.3-1-3.3-2c-3.3-3.1-2.1-5.4,0.9-7.9c2.4-1.9,2.9-5,0.6-7
		c-2.3-2-3.1,1.4-4.4,2.5c-1.3,1-2.4,2.8-4.2,1.3c-1.4-1.3-2.9-3.1-2.2-5.2c0.5-1.8,2.7-3.6,4-3.1c3.5,1.4,4.7-1,6.5-2.8
		c0.6-0.6,1-1.7,1.9-1.3c5.4,2.7,8.9-1,12.9-3.5c1.6-1,3.7-1.3,5.1,0.1c1.4,1.4,1,3.6,0.4,5.2c-0.7,1.6-2.4,2.7-4.5,1.7
		c-4-1.9-3.8,2.6-5.7,3.9c-1.7,1.2,0.5,2.4,1.4,3.4c1,1.1,2,2.2,2.8,3.5c0.7,1.1,1,1.5,2.6,0.9c9-3.8,13.6-16.6,8.7-25
		c-2.1-3.5-4.7-5.1-9.1-3.4c-2.6,1-4.2,3.3-6.8,3.9c-1.4,0.3-3.1,1.8-4.5,0.2c-1.2-1.4-1.1-3.3-0.2-4.7c0.8-1.3,1.9-3.4,4.3-1.6
		c0.9,0.7,2.6,0.6,3.2-0.5c1.5-2.6,3.8-5.2,0.9-8.5c-2.6-2.9-5.2-2.4-7.8-0.3c-4.6,3.6-7.4,8.2-7.9,14c-0.1,0.9,0.5,3-1.4,2.2
		c-2.2-0.9-2.6,0.8-3.5,1.8c-3.9,4.3-7.3,9.2-11.6,13c-3.2,2.8-2.6,4.7,0.1,6.5c4.1,2.8,5.6,7.5,8.6,11
		C852.1,442.9,852.1,449.6,856.2,454.9z M387.4,506.9c2.7,4.8,1.8,9.4,0.7,13.8c-1.5,6.2-0.1,13-4.4,18.8c-1.5,2-1.7,6,3.1,6.4
		c2.6,0.2,5.1,1.2,7.6,1.8c9.1,2.1,9,2.1,11.3-7c0.5-2.1,0.9-4.4-1.6-4.9c-1.5-0.3-4.2-1.8-5.2,1.7c-0.6,2.1-3.3,3.4-5.1,1.2
		c-1.7-2.1-1-5.2-0.1-7.6c0.8-2.2,2.9-1.4,4.7-0.8c1.4,0.5,3.1,1,4.1-0.6c1-1.4,0.9-3.3,0.2-4.8c-0.8-1.9-2.9-1-4.4-1.6
		c-1.9-0.7-3.9-2-3-4.3c0.6-1.5-0.3-4.3,2.7-4.5c2.5-0.2,4.1,0.5,4.1,3.5c0.1,2.8,2.8,3.2,4.8,3.3c2.2,0.1,2.1-2.1,2.3-3.7
		c0.2-1.6,0.2-3.2,0.7-4.8c0.6-1.9,0.5-3.5-2.7-4.5c-8.2-2.7-17.1-2.4-25.1-6.4c-4.3-2.1-9.4-2.7-13.9-4.8c-3-1.5-4.6,0-5.1,3.1
		c-0.5,2.9-0.8,5.8-1.7,8.6c-1,3,0.6,3.8,2.9,4.5c3.1,0.9,2.7-1.2,2.9-3c0.2-1.7,1-3,3.6-3.8c-2.3,8.8-2,17.6-6.1,25.6
		c-0.9,1.8-3,4.8-0.6,6.7c2.1,1.6,5.1,2.9,7.7,2.3c2.7-0.6,2.5-3.6,2.2-5.9c-1-8.2,2.1-16,3.1-23.9c0.1-0.9,0.3-1.8,1.4-1.3
		c0.6,0.3,1.4,1.2,1.4,1.8c0.1,0.9-0.5,1.8-0.7,2.8c-0.5,2.5,0.6,4.5,2.9,5c2.9,0.6,2.7-2.2,3.1-3.9
		C385.9,512.9,386.1,510,387.4,506.9z M319.1,488c1.5,2.2,1.4,4.2,0.5,6.3c-0.9,2.3,0.7,3.3,2.6,4c2,0.7,2.6-1.1,3.1-2.3
		c1-2.9,1.4-6,2.6-8.8c1.3-3-0.1-4.2-2.4-5.3c-8.6-3.9-17.6-6.9-25.7-11.9c-4.2-2.5-5.3,0.6-5.1,3.1c0.6,7-2.4,13-4.3,19.3
		c-0.8,2.5-0.7,7.3-4.7,6c-4-1.3-2.3-5.4-1.2-8.5c2.4-6.7,3.3-13.9,7.5-19.9c1-1.4,1.4-3.3-0.3-4.4c-2.3-1.4-4.6-3.5-7.3-3.2
		c-1.1,0.1-2.1,2.6-1.9,4.3c0.6,6.2-1.9,11.5-3.8,17.1c-1.6,4.7-2.7,9.5-2.1,14.6c0.4,3.6,5.5,8.9,9,9.4c3.5,0.5,7.5-2.5,8.9-6.9
		c2-6,3.9-12.1,5.6-18.2c0.6-2.2,1.6-3.9,4.2-4.3c0.8,3-0.5,5.4-1.6,8c-0.9,2.3,0.8,3.4,2.4,4.3c2.1,1.1,2.2-0.6,2.8-2.1
		c0.6-1.6,1.7-3,2.6-4.5c1.7,1.1,1.3,2.7,0.9,3.7c-2.7,7.5-2.9,15.7-7.5,22.6c-0.8,1.3-3,4.1-0.3,5.7c2.3,1.3,5,3.5,7.7,2.5
		c2.1-0.8,2.1-3.8,2-5.9C312.9,503.8,317.2,496.2,319.1,488z M240,440.3c0.6,3.2,0.9,5.3-0.7,7c-2.6,2.8,0.5,4,1.7,5
		c2.2,1.8,2.5-1.1,3.3-2.2c0.8-1,1.2-2.3,2-3.4c0.4-0.6,1.1-1.5,2-0.8c0.4,0.3,0.7,1.3,0.5,1.8c-2.9,7.1-5.1,14.6-9,21.1
		c-4.2,7.1-4.8,6.5,1.9,11.3c3.6,2.6,4.5,1.1,4.9-2.3c0.9-10,5.1-18.7,10.4-26.9c1.6-2.5,3.2-5.6-0.7-7.6
		c-8.2-4.3-14.2-11.2-21.2-17c-5-4.1-4.9-4.2-7.7,1.3c-0.6,1.2-1.2,2.4-2,3.4c-2.7,3.6-2.2,6.5,1.9,8.6c2.1-1.2,2-5.5,6-4.4
		c-3.1,6.4-6.2,12.5-9.2,18.7c-1.3,2.7-5.5,3.9-4.5,7.5c0.9,3.3,4.8,4.3,7.2,8.4C230.4,459.3,233.5,449.5,240,440.3z M450.1,535.8
		c-1.9-1.8-2.7-3.2-3-5.1c-0.6-3.9-1.6-7.7-2.2-11.6c-0.7-4.3-4.3-4.3-7-4.1c-3.2,0.3-2.6,4.2-2.3,5.8c1.6,7.8-0.8,15.3-1.1,23
		c-0.1,1.6-0.6,3.3-1.6,5c-2.7,4.5-0.6,7.6,4.6,7.9c3.8,0.3,5.1-1.2,4.6-4.9c-0.6-4.4-1.1-8.8,1.1-14.5c1.5,7.2,2.8,12.8,3.9,18.6
		c0.5,2.8,2.3,2.8,4.4,2.8c2.3,0,2.5-1.5,2.7-3.3c0.4-4.1,0.4-8.3,1.3-12.2c1.4-6.5-0.7-13.5,3.5-19.6c0.8-1.2,1.2-5-0.5-5.4
		c-2.2-0.5-4.7-2.3-7-1c-2.2,1.2-1.7,3.9-1.5,5.7C450.4,527,450,531,450.1,535.8z M729.1,490.9c-4.2-0.9-7.3,2.4-11.1,3
		c-4.7,0.8-4.5,3.6-2.9,6.7c4.6,8.9,5.7,18.4,5.4,28.2c-0.2,5.5,1.4,6.6,6.5,4.4c1.8-0.8,3.6-1.7,5.4-2.3c8.1-2.8,9.2-7,8.3-15
		c-0.7-6.3-2.3-12.5-3.8-18.7C736,493.3,734.3,489.8,729.1,490.9z M634,542c0,2.7,0.1,4.7,0,6.7c-0.6,8-0.6,8,7,7c0.2,0,0.3,0,0.5,0
		c8.7-1.4,13.1-4.9,13.4-11.1c0.3-8.1-0.9-16-2.4-23.9c-1.1-5.5-4.1-7.5-9.5-6.9c-3,0.3-5.8,1.5-8.6,1.7c-4.4,0.3-4,3.3-3.2,5.4
		C634,528,633.8,535.4,634,542z M483,531.9c0-1.9,0-2.6,0-3.3c-0.2-6.2-2.8-9.2-8.8-9.9c-7.2-0.8-11.2,1.4-11.6,7.9
		c-0.4,7.7-1.7,15.3-2.4,23c-0.4,4.3,1.5,7.2,4.6,9.8c4.9,4.3,14.8,1.4,15.5-3.9C481.2,547.3,482.1,539,483,531.9z M659.9,542.7
		c0,2.2,0,4.3,0,6.5c0,2.7,0.6,3.6,3.9,2.8c3.3-0.8,6.4-2.4,9.7-3.1c8.1-1.7,8.2-1.6,6.6-9.8c-0.2-1-0.2-2-0.2-3
		c0-2.2-0.9-2.5-2.8-1.8c-2.2,0.8-4.6,1.1-4.1,4.4c0.2,1.7-0.8,2.8-2.6,3c-1.2,0.1-2.3,0-3.1-1.2c-1.7-2.8-0.1-7.6,3.1-8.6
		c3-0.9,4.6-2.3,3.5-5.6c-1.1-3-3.6-1.1-5.5-1.5c-1.3-0.3-3.4,0.7-3.3-1.7c0.1-1.8-1.3-4,1-5.3c1.7-1,3.4-1.4,4.7,0.7
		c1.6,2.6,3.6,1.3,5.6,0.6c2.3-0.9,1.7-2.8,1.3-4.2c-0.4-1.6-0.9-3.2-0.7-4.8c0.3-2.8-0.9-3.5-3.5-2.8c-4.7,1.3-9.4,2.6-14.2,3.8
		c-3.7,0.9-4.3,3.6-3.1,6.3C659.6,525.4,659.1,534.1,659.9,542.7z M348.4,499.4c0-2,0-2.5,0-3c0-6.7-3-8.3-9.1-9.5
		c-6.4-1.3-8.5,0.4-10.3,6.7c-1.6,5.8-3.2,11.6-4.5,17.5c-1.9,9.2,0.7,14.6,8.2,17.7c4,1.6,8,0.2,9.7-3.7
		C346,516.4,346.8,507.1,348.4,499.4z M801.3,485.2c1.1,1.5,0.3,3.2,0.4,4.8c0.1,2,0.3,4.6,2.5,4.6c3.2,0.1,6.1-2.1,7.9-4.4
		c1.4-1.7,0.3-4.9-1.6-6.6c-3-2.6-4.3-6.1-6-9.4c-2.8-5.2-5.7-10.3-8.4-15.6c-0.9-1.8-1.9-2.1-3.5-1.2c-1.5,0.9-2.9,2.2-4.6,2.8
		c-2.7,1-3.1,2.2-2.5,5.2c1.9,10.5,4.7,20.8,4.4,31.6c0,1.5-0.2,4.3,2.4,4.7c3,0.5,5.1-1.7,7-3.3c1.8-1.6,0.2-4.3-0.8-5.9
		C795.3,487.4,795.1,487.5,801.3,485.2z M533.1,544.9c0.1,0,0.2,0,0.2,0c0,4.1,0.1,8.3,0,12.4c-0.1,2.1,0.9,3.6,2.1,5.3
		c3.9,5.1,8.7,2.1,13,1.3c3.3-0.6,5.3-2.9,4.8-6.8c-0.4-3.4,0-7-0.2-10.4c-0.1-1.3,0.8-3.4-1.4-3.7c-2.4-0.3-5.3-1.2-7.2,0.4
		c-1.2,1-0.9,3.7,0.2,5.5c0.4,0.7,1.1,1.3,1.2,2c0.4,2.6-0.2,5.9-2.5,6.4c-2.7,0.5-3.2-2.8-3.3-5c-0.2-5.6-0.1-11.3-0.1-16.9
		c0-2,0.8-4,2.6-4.3c1.9-0.3,3.2,1.1,3.4,3.3c0.1,1.1,0.6,2.5,2.2,1.6c1.5-0.9,3.8,0.9,4.8-1.5c2.2-5.5-0.7-11-6.6-11.5
		c-7.5-0.7-13.6,0.4-13.3,11C533.2,537.6,533.1,541.2,533.1,544.9z M778.5,496.4c-0.4,0.1-0.8,0.3-1.2,0.4c-1.5-2.8-3.3-5.5-4.6-8.5
		c-1.6-3.7-5-6.8-3.2-11.8c0.5-1.4-1-4.9-4.9-2.9c-7.3,3.8-7.5,4-2.5,10.8c0.5,0.6,0.7,1.5,1,2.2c3.3,7,7.6,13.5,10.1,20.9
		c1.1,3.3,3.1,3.7,6.5,2.4c5-2,6-5.5,4.8-9.7c-1-3.6-1.4-7.3-1.5-10.7c-0.1-6.3-3.6-12.3-1.7-18.9c0.2-0.6,0.6-4.8-2.3-4.5
		c-2.6,0.3-5.4,1.8-7.1,4.1c-1.3,1.8,0,4,1.1,5.5C778.2,481.9,775.9,489.7,778.5,496.4z M417.2,537.7c0,0,0.1,0,0.1,0
		c0-2.2-0.3-4.4,0.1-6.5c0.4-2.1,0.6-4.2,0.9-6.3c0.3-2.2,0.6-4.8,3.7-5.1c3.3-0.2,3.1,2.2,3.2,4.4c0.1,1.9,1.4,3,3.1,3.4
		c1.1,0.3,2.8,0.6,3.1-0.7c0.9-3.6,2.2-7.3,1.3-11c-0.7-2.6-9.8-5.9-13.3-5.1c-4.3,1-6.6,4-7.2,8.4c-0.8,6-0.9,12.2-2.4,18.1
		c-2.3,9.2,2.3,17.9,13.1,16.5c2.3-0.3,4.9-0.4,5.1-2.8c0.4-4,2.5-8.1,0.5-12c-0.5-0.9-2.5-1.5-4.1-1.2c-1.8,0.3-1.1,1.8-1.4,2.8
		c-0.2,0.6-0.7,1.2-0.7,1.8c0,2.2-1.7,3.1-3.2,3.1c-2.2,0-2-2.1-2-3.8C417.2,540.3,417.2,539,417.2,537.7z M708.9,525.5
		c0,1.1-0.1,1.8,0,2.4c0.6,2.9-1.4,4.1-3.5,4.5c-2,0.3-2.4-1.8-2.6-3.4c-1-6-2.1-11.9-2.9-17.9c-0.3-1.8-0.2-3.8,2.3-4.2
		c2.1-0.4,3.4,0.3,3.8,2.7c0.3,2,1.4,2.1,3.6,1.4c5.8-2,2-5.9,1.9-8.8c-0.1-4.1-3.3-4.9-6.6-4.3c-10,1.8-12.9,5.3-11.9,15.6
		c0.7,7,2,13.9,3.3,20.9c0.8,4.2,5.1,7.7,8,7.3c9.4-1.4,12.5-5.9,10.8-15.3c-0.2-1.1-0.2-2.3-0.2-3.5c0-1.5-0.7-2.2-2.2-1.8
		C710.3,521.7,707.1,521.9,708.9,525.5z M572,542.4C572,542.4,572,542.4,572,542.4c0,3.7,0,7.3,0,11c0.1,7.2,3.4,10.8,10.4,10.3
		c8.7-0.7,11.2-2.8,10-10.3c-0.2-1.3-0.2-2.7-0.1-4c0-1.8-0.6-2.6-2.6-2.7c-3.5-0.3-5.4,0.7-4.6,4.6c0.5,2.5-0.9,3.9-3.1,4
		c-2.2,0.1-2.7-1.9-2.7-3.8c-0.2-5.8-0.4-11.6-0.4-17.4c0-1.7-0.1-3.8,2.5-4.2c2.8-0.4,2.8,1.4,2.9,3.4c0.1,2.2,1.6,2.6,3.5,2.6
		c1.7,0,2.8-0.5,3.3-2.3c2.3-8.3-0.2-11.8-8.7-11.7c-0.8,0-1.7,0-2.5,0.1c-4.6,0.2-7.5,2.5-7.8,7.2C571.8,533.4,572,537.9,572,542.4
		z M265.6,459.1c-2.1,7.8-4.6,15.4-8.4,22.3c-3.4,6.1-4,5.7,1.4,10c1.3,1,2.4,2.1,3.9,1.4c1.5-0.7,2.2-2.5,2-4.1
		c-0.5-4,1-7.4,2.5-10.9c1.1-2.6,2.2-5.1,3.2-7.7c0.8-2,0.3-6.1,2.8-5.4c3,0.8,0.1,3.8-0.5,5.8c-0.6,2.3,0.8,3,2.2,3.8
		c1,0.6,2,1.4,2.7-0.4c1.6-3.8,3.2-7.5,4.8-11.3c0.4-1,0.1-2-0.8-2.6c-5.8-3.8-11.5-7.5-17.3-11.2c-2.2-1.4-3.6-0.8-4.5,1.7
		c-1,2.9-1.9,5.9-3.3,8.7c-1,2.1-0.9,3.2,1.3,4.2c1.9,0.9,3.2,1.2,4.2-1.3C262.4,460.8,263,458.9,265.6,459.1z M836.4,471.8
		c1.6-0.1,2.3-1.2,3.1-1.9c2.4-2.2,4.8-4.5,7.3-6.7c6.5-6,6.5-6,2.5-14c-0.4-0.9-1-1.7-1.3-2.7c-0.7-2-0.9-4.8-4.1-3
		c-2.4,1.3-4.1,3.1-1.9,6.2c1.5,2.1,2.8,4.6,1,7.3c-1.2,1.7-2.9,3-3.9,0.2c-2.8-7.3-8.4-13.3-9.1-21.4c-0.1-1.5-0.5-3.7-2.1-3.4
		c-3.5,0.5-5.3,3.8-7.6,6c-1.7,1.6,0.5,3.4,1.5,4.7c6.1,7.4,9.9,15.8,12.2,25C834.2,469.2,834,471.8,836.4,471.8z M823.8,470
		c0.2,2-0.1,3.9-2.2,4.6c-1.5,0.5-2.4-0.4-2.9-1.9c-2.3-7.1-7-13.3-7.1-21.2c0-1.5-0.3-4.4-2.2-4.3c-3.5,0.1-5.8,3.1-8.1,5.3
		c-1.5,1.4,0.6,3.6,1.7,5.1c5.3,7.2,8.4,15.2,9.9,23.9c0.4,2.3,0.4,4.9,2.5,6.1c1.9,1,3.1-1.4,4.5-2.4c13.6-9.1,13.5-9.2,9-22
		c-0.1-0.2,0-0.3-0.1-0.5c-0.8-1.6-1.3-3.8-3.8-2.4c-2,1.1-4.5,2-2.4,5.2C823.5,466.7,824.2,468.3,823.8,470z M562.3,522.8
		c-5.3,0.1-6.5,1.8-5,6.3c3.1,9.2,2.6,18.6,0.8,28c-0.4,2.2-0.7,5.4,0.7,6.1c2.3,1.2,5.8,1.3,8.1-0.1c2.1-1.3,1.3-4.2,0.7-6.4
		c-2.4-9.1-2.1-18.3-0.7-27.4C567.8,523.5,567.8,522.7,562.3,522.8z M753,520.6c-0.3-2.4,0.5-4.8-2.7-4.8c-2.4,0.1-3.5,1.6-3.5,3.8
		c-0.1,2.3,1.3,4.5,3.3,4.7C751.9,524.4,753.4,522.4,753,520.6z"/>
	<path class="st1" d="M969.3,542.6c0,10-0.2,20,0.1,29.9c0.1,3.9-1.3,4.4-4.3,2.9c-8.1-4.1-16.1-8.2-24.1-12.3
		c-6-3.1-11.8-6.5-17.9-9.3c-7.7-3.5-14.4-8.3-21-13.4c-8.5-6.6-16.7-13.5-25.2-20c-2.4-1.8-3.3-3.7-3.2-6.7
		c0.2-8.6,0.2-17.3,0.1-25.9c0-3.2,0.6-4,4-3c13.8,3.9,27.7,7.5,41.5,11.1c12.3,3.2,24.7,6.2,37,9.3c3.2,0.8,6.3,2.4,9.4,2.4
		c4.2,0,3.9,2.3,3.9,5.1C969.5,522.6,969.4,542.6,969.3,542.6z"/>
	<path class="st1" d="M1029.7,457.8c0,10.3,0,20.6,0,30.9c0,6.4-0.7,6.8-6.3,4c-20.2-10-40.3-20.1-60.5-30.2
		c-11.6-5.8-23-11.8-34.6-17.4c-2.9-1.4-3.4-3.1-3.3-5.8c0.1-5.3,0.3-10.6,0-15.9c-0.2-3.5,0.9-4.6,4.5-4.4
		c19.9,1.2,39.8,0.5,59.7,1.8c12.1,0.8,24.3,0.3,36.4,0.2c3.8-0.1,5.2,0.8,5.1,4.9C1030.3,436.5,1029.9,457.8,1029.7,457.8z"/>
	<path class="st1" d="M800.8,530.3c10.4,5.3,19.6,10.2,28.9,14.8c8.6,4.3,17.3,8.5,26,12.7c5.9,2.9,11.8,5.8,17.7,8.6
		c1.9,0.9,2.8,2,2.8,4.2c-0.1,20.1,0,40.2,0,60.9c-8.2-2.5-14.4-6.9-20.9-10.4c-8.7-4.6-17-9.8-25.5-14.5
		c-10.1-5.5-20.6-10.5-27-20.8c-0.9-1.4-1.9-2.6-1.9-4.4C800.8,564.7,800.8,547.9,800.8,530.3z"/>
	<path class="st1" d="M1050.6,326.7c-0.9,12.3-2,25.8-2.9,39.4c-0.3,4,0,8-0.1,12c-0.1,4-1.8,5.8-6.2,4.7
		c-20.5-4.9-41.2-8.9-61.8-12.8c-10.9-2.1-21.6-4.7-32.5-6.9c-1.7-0.3-2.4-0.7-2.3-2.4c0.4-6.9,2.3-13.6,2.1-20.5
		c-0.1-1.5,1.4-1.7,2.5-2c15.4-3,30.8-5.9,46.2-9c13.8-2.7,27.5-5.6,41.2-8.5c3.8-0.8,7.7-1.6,11.5-2.4c1.7-0.4,2.5,0.2,2.4,2
		C1050.5,322,1050.6,323.7,1050.6,326.7z"/>
	<path class="st1" d="M258.4,566.1c0.8,2.9-0.9,4.9-2.2,7.3c-7.1,12.9-19.8,18.6-31.6,25.6c-9.1,5.4-18.3,10.8-27.4,16.2
		c-2.3,1.4-3.3,1.2-3.7-1.9c-1.8-14.6-3.7-29.3-5.9-43.8c-1.2-8.3-0.8-9.3,6.8-13.2c17.7-9,35.3-18,52.9-27c5.4-2.8,5.4-2.5,6.2,3.4
		c1.2,9.2,2.6,18.4,4.4,27.6C258.2,562.3,258.1,564.2,258.4,566.1z"/>
	<path class="st1" d="M17.9,333.3c9.4-0.6,18.1,1.4,26.9,2.2c9.5,0.8,19.1,1.3,28.6,2.4c12.9,1.4,25.8,2.9,38.7,4.2
		c1.9,0.2,2.6,0.5,2.6,2.5c-0.1,5.6,0.9,11.1,2.8,16.4c0.8,2.3,0.2,4.2-2.4,5c-13.9,3.8-27.8,7.5-41.7,11.4
		c-12.8,3.6-25.5,7.3-38.2,11.1c-3.7,1.1-5.5,0.6-6.4-3.8C25.3,367.5,21.5,350.5,17.9,333.3z"/>
	<path class="st1" d="M59.1,485.9c-4.4-18.9-8.7-37.6-13.1-56.3c-0.4-1.7-0.3-2.4,1.6-2.6c6.7-0.6,13.4-1.3,20.1-2
		c12.9-1.4,25.9-1.9,38.7-3.8c8.3-1.2,16.7-1.5,25.1-2.3c3.1-0.3,4.1,0.9,4.1,4c-0.1,4.3,0.9,8.4,1.9,12.6c0.9,3.7-0.2,6.3-3.9,8.3
		c-20.7,11.4-41.3,23.1-62,34.6C67.3,480.8,64,484.4,59.1,485.9z"/>
	<path class="st1" d="M1016.1,218.4c2.1,7.9,2.6,15.7,3.2,23.5c0.9,10,2.6,19.8,3.9,29.7c0.5,3.6-0.3,4.6-3.9,4.6
		c-26.1,0.1-52.2,0.4-78.3,0.8c-2.9,0-4.6-0.8-5.6-3.6c-1.7-4.4-3.6-8.7-5.7-13c-1.3-2.6-0.9-4.1,1.9-5.3
		c14.8-6.3,29.5-12.7,44.2-19.1c12-5.2,23.9-10.5,35.8-15.8C1013,219.6,1014.5,219.1,1016.1,218.4z"/>
	<path class="st1" d="M772.6,671.4c-5.4-5-10-9.2-14.5-13.5c-12.3-11.6-24.6-23.2-37-34.7c-2.4-2.2-3.4-4.4-3.4-7.8
		c0.2-17.9,0.1-35.9,0.1-53.8c1.8-0.8,2.7,0.3,3.6,1.1c17.5,15.9,34.9,32,52.4,47.8c2.8,2.5,2.6,5.5,1.9,8.2
		c-1.3,5.4-0.9,10.9-0.9,16.3C774.8,646.9,773.3,658.5,772.6,671.4z"/>
	<path class="st1" d="M332,558.3c0.7,14.4,2.9,27.7,3.4,41.2c0.2,4.1,0.7,8.2,0.8,12.3c0,2.1,0.1,3.9-2,5.6
		c-14.3,11.7-28.4,23.6-43.2,36c-3.1-11-5.9-21-8.7-31.1c-1.8-6.6-3.6-13.2-5.5-19.8c-0.5-1.6-1-2.9,0.9-4.2
		C295.7,585.1,313.5,571.9,332,558.3z"/>
	<path class="st1" d="M187.4,505.1c0.6,2.9-0.1,5.1-3,6.9c-21.7,14.1-43.3,28.3-64.9,42.4c-5,3.2-5.1,3.2-6.1-2.7
		c-2.6-15.1-5.2-30.2-7.8-45.3c-0.4-2.4,0.2-3.2,2.9-3.8c15.9-3.1,31.7-6.5,47.5-9.8c8.6-1.8,17.2-3.7,25.8-5.7
		c2.6-0.6,3.6-0.1,3.6,2.7C185.5,495,187.7,499.8,187.4,505.1z"/>
	<path class="st1" d="M82.7,288.3c-10.5,0-21-0.1-31.5,0.1c-4.1,0.1-5.5-1.2-5.6-5.4C45,267.4,44,251.8,43,236.1
		c-0.2-3.1,1.5-1.7,2.7-1.2c10.2,3.7,20.3,7.2,30.4,11.1c13.1,5,26.1,10.4,39.3,15.3c10.5,3.9,10.6,3.7,7,14
		c-1.1,3.2-2.7,6.3-2.9,9.8c-0.2,2.8-2.3,2.8-4.4,2.8c-10.8,0-21.6,0-32.5,0C82.7,288,82.7,288.2,82.7,288.3z"/>
	<path class="st1" d="M946.1,139.1c2.4,16,4.3,31.2,7.4,46.2c0.4,2.1-0.2,3.9-2.9,4.3c-10.2,1.7-20,5.4-30.4,6.9
		c-6.9,1-13.7,2.8-20.2,5.2c-7.6,2.8-12.8,1-17.9-5.1c-5.2-6.2-5.5-5.6,0.9-10.4c16.8-12.4,33.5-25,50.2-37.6
		C937.3,145.5,941.4,142.5,946.1,139.1z"/>
	<path class="st1" d="M623.7,582.5c8.6,11.7,17.2,23.2,25.7,34.8c3.9,5.3,7.6,10.7,11.7,15.8c2.1,2.6,3.1,5.2,3.1,8.6
		c-0.1,16.1-0.1,32.2-0.1,49.4c-4.6-3.8-7-8.3-9.9-12.2c-8.2-11-15.4-22.7-24.2-33.2c-4.7-5.6-4.4-11.7-4.7-17.5
		c-0.5-14.4-3.1-28.6-2.6-43C622.7,584.4,622.4,583.5,623.7,582.5z"/>
	<path class="st1" d="M421,584.6c1,15.6,1.8,30.6,3.7,45.3c1.1,8.8-3.1,13.3-7.5,18.8c-7.2,9-14.1,18.3-21.2,27.4
		c-1,1.3-2.4,2.2-4.2,3.9c-1.3-8.2-2.5-15.6-3.6-23.1c-1.3-8.2-2.5-16.5-3.7-24.7c-0.2-1.5-0.5-2.7,0.6-4.1
		c11.2-13.8,22.3-27.8,33.4-41.6C419.1,585.9,419.8,585.5,421,584.6z"/>
	<path class="st1" d="M100.7,158.3c0-0.4-0.4-1.4,0.6-1.7c1-0.4,1.9,0.3,2.8,0.8c7,4.7,14,9.3,21,14c10.2,6.9,20.3,13.9,30.7,20.5
		c3.7,2.4,7,5.5,11.1,7.2c2,0.8,2.1,2.1,0.5,3.9c-3.5,3.9-6.7,8.2-10.3,12c-1.5,1.6-3.2,2.3-6.1,1.6c-11.1-2.5-22.4-4.4-33.6-6.3
		c-3.2-0.5-5.4-1.4-6.2-4.9C107.8,189.9,104.2,174.3,100.7,158.3z"/>
	<path class="st1" d="M587,631.5c0.7-15.7,1.3-31.4,2-47.1c0.1-1.4,0-2.5,2-2.7c7.7-0.6,15.4-1.3,23.1-2c2.5-0.3,2.9,0.7,2.9,3.1
		c0,15.6,2.7,31.1,3.2,46.7c0.4,11.5,1.1,11.3-10.5,11.2c-6.1,0-12.2,0.6-18.2,1.3c-3.7,0.4-5.3-0.5-4.7-4.5c0.3-1.9,0.1-4,0.1-6
		C586.9,631.5,587,631.5,587,631.5z"/>
	<path class="st1" d="M847.9,85.1c0,11.8-0.2,22.3,0.1,32.9c0.2,7,1.1,14,1.8,21c0.4,3.9-8,9.5-9.3,10.6c-9.3,8.5-17,3.8-25.1-2.3
		c-3.7-2.8-8.3-4.5-12.4-6.8c-1.2-0.6-3-0.9-1.1-3c14.5-16.9,29-33.9,43.5-50.8C845.5,86.4,845.8,86.3,847.9,85.1z"/>
	<path class="st1" d="M712.6,590.9c0,9,0,17.9,0,26.9c0,3-0.7,4.5-4.3,5.1c-11.1,1.9-11.1,2.2-15.4-7.8
		c-5.9-14.1-11.7-28.3-17.5-42.4c-0.9-2.1-0.6-3.3,1.9-3.9c10.6-2.7,21.2-5.3,31.7-8.3c3.6-1,3.9,0.2,3.8,3.1
		c-0.1,9.1,0,18.3,0,27.4C712.7,590.9,712.7,590.9,712.6,590.9z"/>
	<path class="st1" d="M880.7,630.5c0-20.4,0.1-40.1-0.1-59.9c0-3.4,2.4-4.3,4.3-5.4c6.4-3.8,13-7.3,19.6-10.8
		c3.2-1.6,2.6,1.1,2.6,2.6c0,10.8-0.1,21.6-0.2,32.4c-0.1,7.6-0.1,15.3-0.2,22.9c0,1.6,0.4,3.2-1.5,4.4
		C897.2,621.8,889,626.3,880.7,630.5z"/>
	<path class="st1" d="M454.1,606.4c0,8-0.1,16,0.1,23.9c0.1,3.2-0.9,4.6-4.3,4.3c-5.6-0.5-11.2-0.7-16.8-1.1c-4-0.2-3.7-3.9-3.7-5.9
		c0-10.7-2.5-21.3-2.4-32c0.1-4.6-0.6-9.1-1.6-13.6c-1.3-5.3,0.5-6.8,6-5.8c6,1,12,1.9,18,2.3c3.1,0.2,3.5,1.4,3.5,3.9
		c-0.1,8,0,15.9,0,23.9C453.3,606.4,453.7,606.4,454.1,606.4z"/>
	<path class="st1" d="M808.3,603.9c1.3,3-0.2,5.6-0.4,8.4c-1,13-2,25.9-3,38.9c-0.4,4.7-1.7,8.4-7,10.1c-5.7,1.8-11,4.7-16.5,7.3
		c-0.9,0.4-1.4,1.4-2.5,0.5c-0.9-0.8-0.1-9.9,0-13.4c0.2-13.4,2.5-26.7,2.1-40.1c-0.1-1.7,0.4-2.8,2.2-3.3
		C791.6,609.9,799.5,605.4,808.3,603.9z"/>
	<path class="st1" d="M154.2,544.6c9.4,4,17.7,10.1,26.6,15.2c1.8,1.1,0.8,3.1,1,4.5c2.4,16.2,4.5,32.4,6.7,48.6
		c0.1,0.8-0.1,1.5-0.1,2.6c-6.4-3.9-12.3-7.8-18.6-11.2c-6.6-3.6-9.6-8.7-10.3-16.3c-1.3-13.2-3.7-26.2-5.6-39.3
		C153.6,547.5,153.2,546.2,154.2,544.6z"/>
	<path class="st1" d="M584.1,673.4c-0.7,6,0.5,11.9,1.3,17.7c0.5,3.9-1.7,5.3-4.5,5.2c-6.8-0.2-13.4,1.7-20.2,1.2
		c-2.3-0.1-3-1-3.6-2.9c-1.1-3.1-0.9-6.3-0.6-9.3c1.2-10.6-0.1-21.1-0.3-31.7c-0.1-4.3,1.2-5.6,5.2-5.1c6.1,0.8,12.1-1.6,18.2-1.1
		c2.3,0.2,3.7,0.4,3.5,3.2C582.5,658.3,584.7,665.8,584.1,673.4z"/>
	<path class="st1" d="M490.1,689.8c0.1,6,0.2,5.9-6.1,4.9c-5.5-0.8-11-1.1-16.5-2.1c-3.1-0.5-4.1-2.5-4.2-4.5
		c-0.7-13.4-2.9-26.7-4.2-40.1c-0.4-3.9,1-4.9,4.6-4.5c6.8,0.8,13.7,1.4,20.5,2c1.6,0.1,1.8,0.8,1.9,2.2c0.6,6.2,1.3,12.4,1.9,18.6
		C488.8,674.1,489.5,682,490.1,689.8z"/>
	<path class="st1" d="M668.7,641.9c0-2.8,0.6-4.1,3.8-4.4c6.2-0.7,12.3-1.8,18.3-3.3c2.9-0.7,4-0.4,3.9,2.8c-0.1,14-0.1,27.9,0,41.9
		c0,1.9-0.5,3.1-2.4,3.8c-6.5,2.5-13,5.1-19.4,8c-3,1.3-3.4,0.2-3.3-2.4c0.1-7.8,0-15.6,0-23.4C669.4,664.8,668.8,649.5,668.7,641.9
		z"/>
	<path class="st1" d="M993.5,488.2c0,2.8,0,5.5,0,8.3c0,18,0,35.9,0.1,53.9c0,3.1-0.8,5.3-3.2,7.4c-5.1,4.5-10,9.2-14.9,13.7
		c-1.8-0.7-1.1-2.1-1.1-3.1c0-19.8,0.1-39.6,0.1-59.3c0-2.5,0.7-4.3,2.5-6.1c5.1-5,9.9-10.2,14.8-15.4
		C992.5,487.7,993,487.9,993.5,488.2z"/>
	<path class="st1" d="M341.2,601.8c-1-9.1-2.4-22-3.8-34.8c-0.4-3.6,0.7-7.2-0.7-10.8c-0.4-1,0.5-1.5,1.4-1.5c1.3,0,2.7-0.1,3.9,0.3
		c7.8,2.4,15.5,5.1,23.4,7.5c2.1,0.6,2.6,1.2,2,3.3c-4.4,15.7-8.8,31.3-13,47.1c-0.8,2.9-2.4,2.8-4.4,2.6
		C342.6,614.8,341.4,613.3,341.2,601.8z"/>
	<path class="st1" d="M212.4,164.2c-1.3-0.4-1.7-1.1-1.9-2.2c-4.1-19.8-8.3-39.5-12.5-59.3c-0.2-0.8-0.7-1.6,0.3-2
		c1.4-0.5,2,0.7,2.8,1.5c5.5,6,11.1,11.9,16.5,17.8c7.1,7.7,14,15.5,21.1,23.1c1.8,2,2,3.1-0.5,4.5c-8.4,4.7-16.5,10-24.3,15.6
		C213.4,163.7,212.9,163.9,212.4,164.2z"/>
	<path class="st1" d="M384.2,681.7c-5.7-1.4-11.4-2.7-17-4.4c-3.6-1.1-3.3-4.7-3.7-7.4c-1.5-12.7-4.2-25.1-6.1-37.7
		c-0.8-4.9,0-5.7,4.8-4.7c5,1,9.9,2.1,14.9,2.9c2.6,0.4,3,1.7,3.2,4c1.5,14.8,3.7,29.5,6.5,44.1C387.3,681,387.1,682.2,384.2,681.7z
		"/>
	<path class="st1" d="M730.4,50.5c1.3,8.6,2.4,15.8,3.4,23c1.6,11.5,3.1,22.9,4.8,34.4c0.5,3.4-0.4,4.2-3.6,3.2
		c-8.6-2.9-17.3-5.8-26-8.3c-3.4-1-3.3-2.5-2.1-5c3.7-7.4,7.5-14.8,11.2-22.2C721.2,69.2,728.9,53.2,730.4,50.5z"/>
	<path class="st1" d="M251.8,592c3,1.3,5.6,3,8.4,3.5c9.2,1.7,13.1,8,14.7,16.2c2.4,13,7.4,25.3,9.8,38.3c0.2,0.9,1,1.6,0,2.6
		c-1.1,1.1-2,0-2.6-0.3c-4.6-2.9-9.3-5.5-14.1-8c-4.1-2.1-6.4-5.5-7.5-10.2c-2.9-12.8-6.3-25.6-9.6-38.4
		C250.5,594,250.2,592.8,251.8,592z"/>
	<path class="st1" d="M108.2,557.3c-7.3-9.2-14.1-17.6-20.7-26.2c-2.6-3.4-1.9-7.8-2.6-11.8c-2-11-3.4-22.2-5-33.3
		c-0.1-0.8-0.4-1.7,0.6-2.1c0.9-0.3,1.6,0.3,2.1,0.9c3.9,4.1,7.3,8.7,11.7,12.2c8.2,6.7,7.1,16.3,8.7,25.1
		C104.9,533.6,106.9,544.9,108.2,557.3z"/>
	<path class="st1" d="M531.4,599.9c-1.9,13.9-1.3,25.3-1.6,36.8c-0.1,3.6-0.9,5.4-4.8,4.7c-0.8-0.1-1.7,0-2.5,0
		c-6.4,0-6.1-0.1-6.6-6.6c-0.6-9.2-1.8-18.3-2.7-27.4c-0.8-7.3,0.2-14.3,3.5-21.1c0.9-1.9,1.7-2.9,3.8-2.6c2.2,0.4,5.3-1.2,6.2,2.3
		C528.2,591.4,532.7,596.1,531.4,599.9z"/>
	<path class="st1" d="M508.4,604.4c0.7,5.5,1.4,9.4,1.6,13.4c0.4,6.1-0.2,12.2,1.4,18.2c2,7.2-2.3,13.3-4.3,19.7
		c-2.9,9.3-6.1,18.5-9.3,27.8c-0.5,1.3-1.4,2.5-2.1,3.7c-2.2-1.1-1.5-2.9-1.7-4.4c-0.4-3.4-0.3-6.9-0.6-10.3
		c-1-10.2-1.8-20.5-1.1-30.6c0.4-5.5,4.3-10.8,6.6-16.2C502,619.1,504.9,612.4,508.4,604.4z"/>
	<path class="st1" d="M535.2,605.9c4.6,11.6,9.2,23.3,14,34.9c1.3,3.3,1.8,6.5,2.2,10c1.2,12,1.6,24.1,1.8,36.2c0,1.6,0.6,3.3-1,5.4
		c-2.1-5.4-4.1-10.4-6-15.4c-3.6-9.2-7.3-18.5-10.9-27.8c-0.6-1.5-1.2-3.1-1.2-4.7c-0.1-12.9-0.1-25.8-0.1-38.7
		C534.4,605.9,534.8,605.9,535.2,605.9z"/>
	<path class="st1" d="M796,575.8c-2.5-0.9-3.3-2.1-4.3-3.2c-8-9.7-16-19.3-24-29c-1.3-1.6-2.4-2.8,0.9-4.1
		c7.4-2.9,14.6-6.4,21.9-9.7c4.8-2.2,5.6-1.7,5.6,3.5C796,547.3,796,561.2,796,575.8z"/>
	<path class="st1" d="M1047.1,393.2c1.1,15.3-2,29.9-1.4,44.7c0.3,8.3-0.7,16.5-1.1,24.7c-0.2,5.2-3.9,9.6-5.2,14.7
		c-0.7,2.7-1.1,5.8-3.9,8.4c-0.1-1.9-0.3-3.4-0.2-4.9c0.1-15.5,0.8-31,0.2-46.4c-0.5-12,3.1-22.6,8-33
		C1044.5,398.8,1044.5,395.6,1047.1,393.2z"/>
	<path class="st1" d="M284.5,534.6c-0.6,1-1.1,1.9-1.7,2.7c-5.3,7.1-10.5,14.3-15.9,21.3c-0.8,1.1-1.9,2.9-3.4,2.5
		c-1.7-0.5-1-2.5-1.2-3.9c-1.5-9.8-2.9-19.7-4.5-29.5c-0.6-3.7,1.3-6.1,4.6-4.6c7,3.1,13.8,6.7,20.7,10.1
		C283.7,533.5,284.1,534.1,284.5,534.6z"/>
	<path class="st1" d="M52.5,477.9c-13.2-16.1-18.2-47.3-22.2-71.9c2,0.6,2,2.4,2.7,3.7C44.7,430.9,45.2,455.3,52.5,477.9z"/>
	<path class="st1" d="M868.7,513.9c-7.2-5.3-13.5-9.9-19.6-14.6c-1.1-0.8-1.9-2.2,0-3.6c5.3-3.9,10.5-8,15.8-11.9
		c2.4-1.8,3.9-1.3,3.8,2.1C868.6,494.8,868.7,503.8,868.7,513.9z"/>
	<path class="st1" d="M198.6,483.8c5.2-0.2,7.5,4.7,11.4,6.8c1.1,0.6,0.4,2.1-0.7,2.9c-4.3,3.3-8.6,6.6-13,9.7
		c-2.1,1.5-3.5,1.4-4.2-2c-0.5-2.5-0.6-5.1-1.2-7.7C189.1,486,190.9,483.9,198.6,483.8z"/>
	<path class="st1" d="M150.8,432.8c-1.3,3.3-4.3,3.7-6.6,4.7c-2.5,1-1.4-1.7-1.6-2.8c-1-4.6-2-9.2-2.8-13.8
		c-0.2-0.9,0.4-2.6,1.4-1.5C144.6,423.7,147.6,428.3,150.8,432.8z"/>
	<path class="st1" d="M919.8,424.2c0,4.3,0.1,7.2,0,10.1c-0.1,1.9,1.1,4.8-0.9,5.3c-2.7,0.7-5.1-1.9-7.5-3.1
		c-0.8-0.4-0.3-1.1,0.2-1.6C913.9,431.6,916.4,428.5,919.8,424.2z"/>
	<path class="st1" d="M773.1,304.7c4.7-1.3,8.6-2.3,12.4-3.5c6.3-2,8.1-4.4,8.3-11c0.1-3.7,0-7.3,0-11c0-3.3-1.6-4.9-4.8-5.1
		c-4.9-0.4-9.9-0.8-14.8-1.2c-2.2-0.2-3.4-0.1-2.7-3.5c1.4-6.5,3.6-13,3.4-19.8c-0.1-2.7,1-5.7-2.9-6.9c-3.5-1-6.4,0-8.3,2.7
		c-3.5,4.9-6.8,9.9-9.8,15.1c-1.8,3.3-4.6,6-5.8,9.6c-0.6,2-2.5,1.9-4.2,1.8c-10.6-0.2-21.4,0.5-31.9-1c-7.8-1.1-16.3-3.2-20.2-12.2
		c-2.3-5.4-5.5-10.3-8.2-15.6c-2-3.8-4.6-6.7-9.3-5.7c-4.2,0.9-5.6,4.7-4.6,10.2c0.5,2.9,0.6,5.8,1,9.2c-8.3-2.1-16.3-4.4-24.4-6.1
		c-16.7-3.6-33.2-7.5-50.3-8.8c-5.5-0.4-11-2-16.6-2.1c-2.4-0.1-4.1-0.9-2.7-4.5c3-7.6,3.3-15.8,2.5-23.9c-0.3-2.8,0.7-4.3,3.1-5.3
		c6.5-2.8,12.5-6.6,17.8-11.4c8.2-7.5,12.7-16.5,11.2-27.9c-0.4-2.9,2-1.7,3-1.8c6.8-0.4,13.4,1.3,20,2.4c10.9,1.9,21.7,4.1,32.3,7
		c10.9,2.9,21.5,6.7,32.2,10.1c21.5,6.8,42,15.9,61.8,26.7c16.8,9.3,32.9,19.9,47.1,32.9c16.5,15.1,29.3,32.6,37.3,53.8
		c5.3,14.2,8,28.6,6.4,43.4c-1,9.2-2.6,18.7-7.4,27.1c-1.5,2.7-1.3,6-3.8,8.4c-2.6,2.5-4,2.8-5.5-1c-7.8-19.9-20.8-36.1-36.1-50.7
		C791,318.1,782.9,311.3,773.1,304.7z"/>
	<path class="st1" d="M209.2,314.1c3.8-18.4,11.3-34.8,22.4-49.9c17-23.2,39.7-39.4,64.1-53.6c13.9-8.1,28.7-14.3,43.4-20.8
		c9.1-4,18.7-6.9,28.1-10c11.4-3.8,23.3-6.8,35.3-8.6c3.8-0.6,7.1-3.2,11.2-3c2.2,0.1,3.5,0.1,3.7,3c0.8,9.8,6.5,17,13.5,23.2
		c5.1,4.5,10.7,8.1,16.7,11.3c2,1.1,2.6,2.1,2.4,4.3c-0.9,9.8-0.9,19.4,3.1,28.7c0.7,1.7-0.4,1.9-1.7,2.6
		c-5.5,2.8-11.5,2.5-17.3,3.5c-12.8,2.4-25.7,4.7-38.2,8.4c-4,1.2-4.9,0.9-3.7-3.3c0.7-2.5,1-5.2,1.1-7.8c0.1-2.5,1-6-2.4-6.8
		c-3.7-0.9-7.6-1-10.1,3.2c-3.6,6.1-7.7,11.9-11.1,18.1c-1.8,3.3-3.9,5-7.3,6.6c-7.5,3.4-15.2,4.7-23.3,4.4
		c-4.8-0.2-9.7-0.5-14.5,0.2c-7.2,1.1-10.9-2.2-13.9-8.1c-3.3-6.5-7.2-12.8-10.8-19.1c-2.2-3.7-5.8-2.9-9-2.3
		c-2.7,0.5-3.6,2.8-3.6,5.7c-0.1,7.2,1.8,14,3.6,20.8c0.8,2.9-0.2,2.9-2.4,3.2c-4.6,0.6-9.2,1.2-13.8,1c-4.2-0.2-6.1,2-6,6
		c0.1,4.2,0.1,8.3,0.3,12.5c0.3,8.5,2,10.8,10.1,13.5c1.3,0.5,2.7,0.9,4.5,1.6c-8.7,6.9-17.2,13.4-24.9,20.8
		c-14.1,13.6-25.9,28.8-34.2,46.7c-0.6,1.3-0.8,3.5-2.4,3.4c-1.8,0-2.7-2.1-3.4-3.6c-5.1-10.8-8.6-22.1-9.2-34.2
		C209.1,333.7,208.3,318.3,209.2,314.1z"/>
	<path class="st1" d="M607.7,297.6c6.6-1.2,13.5-0.4,20.3-1.4c5.8-0.8,11.7-1,17.4-2.9c3.3-1.1,5.1-2.6,4.6-6.3
		c-0.2-1.8-0.2-3.7,0-5.5c0.5-4.1,2.3-6.6,7-6.4c6.3,0.3,12.6,0.3,19,0.4c2.5,0.1,3.4-0.3,2.8-3.4c-1.9-8.6-3.3-17.3-4.8-26
		c-0.2-0.9-0.7-2.4,1-2.8c1.3-0.3,2.2,0.4,2.8,1.5c4.6,7.9,9.4,15.7,13.7,23.7c4.2,7.8,6.4,8.6,15.4,8.1c9.3-0.5,18.7-0.1,27.9,0.8
		c9.7,1,17.1-0.1,21.5-10.7c2.3-5.5,6.1-10.7,9.5-15.9c1.1-1.6,2.1-3.4,4.1-2.4c1.7,0.9,0.9,2.9,0.4,4.4c-2.5,7.1-3.3,14.7-5.1,22
		c-0.8,3.2,0.7,3.4,3,3.5c5.6,0.3,11.3,0.7,16.9,0.8c2.6,0,3.7,0.4,3.7,3.5c0,12.9,0.1,12.9-15.9,17.9c-0.8,0.2-1.6,0.6-2.4,0.6
		c-10.5,0.4-14.2,6.7-15.9,16.4c-2.3,13.6-5.5,27.1-9.1,40.5c-2.2,8.2-0.6,16.1,0.5,23.9c1.2,8.6,1.4,17.3,2.6,26
		c1.4,10.1,3.1,32.4,3.1,33.4c0,1.2,0.2,2.6-1.1,3c-1.5,0.5-1.8-1-2.4-1.9c-6.5-9.4-13-18.8-19.5-28.3c-3.1-4.5-6-9-9-13.5
		c-2-3-3.7-3.6-6.4-0.2c-10.2,12.6-20.6,25-30.9,37.4c-0.8,1-1.8,1.9-2.7,2.9c-1.1,1.2-2.5,2.3-4.1,1.4
		c-1.6-0.9,10.1-49.4,16.3-71.9c2.3-8.3,0.9-15.9-0.3-23.7c-1.1-7.3-2.6-14.5-3.9-21.7c-0.7-3.8-1.7-5-6.4-4.2
		c-12.1,2.1-24.1,4.9-36.4,5.7c-7.5,0.5-14.9,2.5-22.3,3.3c-11.5,1.2-22.9,3.3-34.6,1.8c2.6-1.6,5.4-1.9,8.4-2.3
		c13.6-1.7,27.2-3.5,40.8-5.5c8.4-1.2,16.9-2.2,25.3-3.4c6.9-1,13.8-2.2,20.8-2.9c3.9-0.4,2.1-3,2.4-4.8c0.4-2.3-0.9-3.7-3.1-3.2
		c-4.5,1.1-9.2,0.1-13.6,1.7c-5.5,2-19.8,1.7-20.9,2.6c-10.1,0.7-20.3,1.1-30.3,3.3c-4,0.9-8.2,0.7-12.3,1c-18,1.3-36.1,2-54.2,2.1
		c-1.6,0-4.1,0.5-4.2-1.5c-0.1-2.7,2.7-1.8,4.3-1.9c7-0.2,14,0.1,21-0.5c12.6-1.2,25.2-1.9,37.8-2.7c8.8-0.6,17.6-2.1,26.5-2.4
		c10.6-0.3,21.2-2.1,31.9-3.3c3.9-0.4,7.8-1.2,11.7-1.5c2.8-0.2,3.6-1.3,3.7-4c0.1-7.3-1.1-8.9-7.7-11.9c-6.2-2.8-12.2-6.1-18.2-9.3
		c-2.2-1.2-3.3-1.2-3.2,1.8c0.1,2.4-0.9,4.8-1.1,7.2c-0.5,4.4-3.9,6.5-8,7.1c-15.8,2.4-31.6,4.6-47.6,5.2c-16.7,0.7-33.4,3-50.1,4.1
		c-7.2,0.5-14.6-0.4-21.6,1.6c-0.2,0-0.3,0-0.5,0c-1.8,0-4.5,0.6-4.7-1.6c-0.2-2.2,2.5-2.4,4.5-2.5c8.4-0.4,16.8-0.8,25.2-1.2
		C552.4,302.9,594.8,299.8,607.7,297.6z M708.6,348.4c0.6-0.3-2.5-11.7-10-9.8C701.7,341.5,707.5,348.9,708.6,348.4z M700.9,390.5
		c11,0.5,21.9,0.4,32.9,0.1c0.6,0.2,0.8-1.5,0-1.3c-4-2.8-7.9-5.8-12-8.5c-3.1-2-6.2-2.3-9.4,0.3c-3.7,2.9-7.7,5.2-11.6,7.8
		c-0.6,0.4-1.5,0.6-1.2,1.6C699.7,390.6,700.5,390.5,700.9,390.5z M748,308.6c-2.3-0.7-4.2-0.3-6.1,0.1c-5.1,1.2-10.2,2.4-15.3,3.5
		c-8,1.7-15.9,3.4-23.9,4.9c-3.4,0.7-4.3,1.9-2.2,5.1c1.7,2.6,2.9,5.5,4.2,8.3c1.1,2.4,2.7,3.5,5.4,3.5c6.8-0.1,13.6,0,20.4,0
		c1.6,0,3.1,0,3.9-1.6C738.3,324.2,743.2,316.6,748,308.6z M720,337.7c-2.4,0-4.7,0.2-7.1,0c-3.2-0.3-4,1.2-2.9,3.8
		c2.1,4.8,4.4,9.5,6.7,14.2c1,2.1,2.1,2.3,3.3,0.1c1.6-2.9,3.3-5.6,4.8-8.5c1.5-2.8,5.4-6.1,4.2-8.2
		C727.9,336.6,723.1,338.8,720,337.7z M696.2,340.7c-0.4,0.3-0.9,0.6-1.3,0.8c0.7,5.8,1.4,11.7,2.2,17.5c0.1,1.1,0.9,1.9,2,1.9
		c4.8,0.1,9.6,0,15.7,0C707.9,353.4,702.1,347.1,696.2,340.7z M737.8,295.6c-9.2-1.4-18.3-1.2-27.3-1.4c-1.1,0-3.1-0.9-3.1,1.2
		c0.1,1.5,0.8,3.3,2.7,3.8c0.9,0.2,2.1-0.3,2.9,0c3.3,1.1,6.7,2.2,6.5,6.7c-0.1,1.2-0.6,2.4,1.3,2.5c1.8,0,1.6-1.3,1.5-2.5
		c-0.2-1.9,0.9-3.3,2.6-3.7c3.3-0.7,5.7-3.9,9.6-3.2C736.1,299.4,737.4,298,737.8,295.6z M744.7,342.4c-7.1,5.4-13.5,10.4-19.2,16.3
		c-1.7,1.8-0.7,2.6,1.3,2.6c4.1,0.1,8.3,0.1,12.4,0.1c1.1,0,2.5,0.1,2.7-1.5C742.6,354.4,745.2,349.2,744.7,342.4z M784.8,289.9
		c0.1-5.6-0.5-6-5.2-3.7c-4.1,2-8.3,4-12.4,6c-2.2,1.1-4.7,1.7-6.5,3.6c-0.9,0.9-1.2,2-0.5,3.1c0.5,0.9,1.2,1.5,2.4,0.9
		c6.1-2.9,12.8-3.6,19.1-5.6C784.1,293.5,785.3,292.2,784.8,289.9z M753.3,309.1c-0.8,0.4-1.4,0.5-1.6,0.8c-4.5,7.3-9,14.6-13.5,22
		c-0.5,0.7-0.1,1.5,0.5,2.2c2,2.1,8.5,1.1,9.2-1.7C749.8,324.8,751.4,317.1,753.3,309.1z M696.2,294.2c-2.8,0-4.6,0-6.4,0
		c-0.8,0-1.6,0.1-1.8,1.2c-0.6,3.4,4.9,9.4,8.3,8.6c2.3-0.5,4.5-0.7,6.8-1c2.3-0.4,3-1.4,1.9-4C703.1,294.1,699.5,293.6,696.2,294.2
		z M729.5,408.6c4.8-3.1,7.9-7.6,12.7-12.8c-7.2,0-12.9-0.1-18.6,0c-2.2,0-1.9,1.1-0.9,2.5C725,401.7,727.2,405.2,729.5,408.6z
		 M712.6,395.5c-6.3,0-11.5,0-16.7,0c-1.5,0-2.3,0.9-1.6,2.2c1.6,3.1,2.9,6.5,5.3,9.3c1.4,1.6,2.4,1.2,3.7,0.1
		C706.8,404.1,709.3,400.3,712.6,395.5z M734.8,305.9c5.9,0.5,9.7-2.4,13.9-2.8c3.5-0.3,4.6-2.9,5.9-5.3c0.5-0.9,0.9-2.1-0.9-2.7
		c-4.9-1.5-11.3,0.5-13.7,5.1C738.9,302.2,737.4,303.6,734.8,305.9z M706.5,365.2c9.3,9.2,15.2,9.1,22.1,0
		C721.4,365.2,714.3,365.2,706.5,365.2z M706.3,306.3c-2.7-0.6-5.1,1.1-7.7,1c-1.6-0.1-4.3,0.1-3.9,1.9c0.5,2.1,0.9,5.6,4.8,5
		c2.7-0.4,5.6-0.6,8.1-1.5c1.5-0.5,4.8,0,4.1-2.9C711.2,307.4,709.3,305.6,706.3,306.3z M698.4,334c3.7,1,4.2-0.8,2.4-3.8
		c-1.9-3.1-3.7-6.1-4.8-9.5c-0.7-2.2-2.3-1.3-3.7-1.4c-1.8-0.1-1.6,1.5-1.4,2.5c0.4,2.9,0.8,5.8,1.6,8.6
		C693.3,333,695,334.6,698.4,334z M680.7,257.6c-0.4,5.7,0.5,11.2,2.3,16.5c1.3,3.8,5.1,2.6,7.2,1.7c2.2-0.9-0.1-3.2-0.9-4.4
		C686.1,267,684.1,262,680.7,257.6z M691.6,410.7c5.8,0,5.6,0.1,3.5-5c-1-2.5-3.1-4.1-4.1-6.6c-0.4-0.9-1.1-1.5-1.8-0.7
		c-2.6,2.9-2.2,6.6-2,10.1C687.4,411.8,690.1,410.4,691.6,410.7z M743.7,338.4c-10.3-0.5-11.2,0.3-15.3,12.1
		C734.1,347.4,738.1,342.9,743.7,338.4z M745,405.8c-0.9-1.4,1.2-3.8-1-4.7c-2-0.8-2.9,1.7-4.2,2.9c-1.4,1.3-2.7,2.9-4,4.4
		c-0.6,0.7-1.4,2.1-0.1,2.3c2.6,0.4,5.4,0.6,7.9,0.1C746,410.2,744.3,407.6,745,405.8z M763.9,264.3c-0.2-0.3-0.5-0.6-0.7-0.9
		c-2.4,3.5-4.8,6.9-7.2,10.4c-0.8,1.1-2.4,2.1-1.1,3.7c1.1,1.4,2.8,0.5,4.2,0.7c2.2,0.2,1.6-1.5,1.9-2.7
		C761.9,271.8,762.9,268,763.9,264.3z M711,290.8c2.8,0,4.3,0.1,5.7,0c1.9-0.2,4.8,1,5.5-0.7c0.8-1.7-1.9-3.3-2.8-5.1
		c-1.2-2.3-2.2-1.9-3.5-0.2C714.6,286.4,713.3,288.1,711,290.8z M683.8,280.2c1.7,1.8,2.6,3.3,3.9,4.1c1,0.6,0.8,3.4,2.9,1.8
		c1.7-1.2,4.1-2.5,3.9-4.7c-0.2-2.3-2.7-0.9-4.1-1.1C688.5,280,686.5,280.2,683.8,280.2z M756.5,290.5c-2.6-0.8-0.8-6.1-5-4.9
		c-2,0.6-3.5,4.1-2.9,5.1C750.6,294,753.5,291.4,756.5,290.5z M707.1,288.2c2.1-3.3,6.7-3.8,5.4-7c-0.9-2.1-5.5-1.8-7-0.4
		C702.4,283.3,707.5,284.5,707.1,288.2z M726.3,288.1c2.4-1.9,4-3.8,4.4-6.6c-3,0-5.7,0-9.3,0C723.5,283.8,725.2,285.6,726.3,288.1z
		 M724.8,374.3c3.5,0,6.3,0,9.1,0c2.4,0,2.3-1,1.1-2.7C732.5,368,730.5,368.4,724.8,374.3z M739.7,290.2c-1.2-2.6-1.6-5.6-4.1-5.7
		c-3.3-0.1-3.1,3.5-4.8,5.7C734,290.2,736.6,290.2,739.7,290.2z M675.2,279.7c-3.9,0-7.4,0-11.5,0
		C669.9,284.6,672.7,284.6,675.2,279.7z M700.5,374c2.8,1.7,5.4,0.7,7.9,0.9c0.5,0,1.3-0.4,1.6-0.8c0.6-0.8-0.1-1.4-0.7-2
		C705.6,368.5,703,370.4,700.5,374z M742,414.4c-2.6,0-5.1,0-8.7,0c2.1,2,2.3,5.1,4.7,4.8C739.9,419,741.6,417,742,414.4z
		 M681.6,289.5c0.3-3,0.8-5.6-1.4-6.9c-1.5-0.8-3.4,1.7-3.5,2.6C676.4,288.1,679.3,288.1,681.6,289.5z M727.6,379.1
		c0.3,1.9,1.6,2.3,2.5,2.9c1,0.6,1.4,3.1,3.3,1c0.9-0.9,2.7-1.6,2.3-2.9c-0.5-1.9-2.5-0.8-3.9-1
		C730.5,378.9,729.2,379.1,727.6,379.1z M689.3,414.2c3.7,5.9,4.1,5.9,7.3,0C694.2,414.2,692,414.2,689.3,414.2z M698.7,289
		c-0.7-0.8-0.5-3-2-2.6c-1.2,0.3-2.6,1.9-2.8,3.1c-0.3,1.7,1.6,1.4,2.8,1.5C698,291.1,698.9,290.7,698.7,289z M740.6,282.3
		c1.1,1.4,1,4.3,3.3,3.7c1.1-0.3,1.8-2.1,3-3.7C744.2,282.3,742.4,282.3,740.6,282.3z"/>
	<path class="st1" d="M450.2,316c1.8,0.1,3.7,0.1,5.5,0.2c1.2,0.1,3.2-0.7,3.2,1.2c0.1,2.2-2.1,1.7-3.5,1.7c-6.5,0-13-0.1-19.5-0.1
		c-17.8-0.2-35.4-1.9-52.9-4.7c-2-0.3-4,0.2-6-0.2c-3.2-0.6-3,2.2-3.5,3.6c-0.6,1.8,1.1,3,2.8,3.3c12.7,2.3,25.5,4.2,38.2,6.2
		c10.2,1.6,20.5,2.3,30.7,3.8c3.6,0.5,13,0.9,12.7,2.4c-0.2,0.9-1.1,1.7-2.2,1.7c-3.7,0-7.4,0.3-11-0.2c-17.9-2.7-36.1-3.9-53.9-7.7
		c-4.6-1-9.5-1.3-14-2.5c-4-1.1-5,0.2-5.6,3.4c-1.4,7.4-2.2,14.9-4.3,22.2c-2.8,9.9,1.8,18.7,3.5,27.9c3.5,19.2,8.3,38.2,12.4,57.3
		c0.2,1.1,0.9,2.6-0.7,3.5c-2.1,1.2-24.9-28.8-35.7-42.3c-2.1-2.7-3.5-4.1-6.3,0.1c-9.3,13.8-19.2,27.1-28.9,40.6
		c-1,1.4-2.5,2.5-4,1.9c-1.7-0.8,2.6-29.2,4-42c1.1-10.1,1.9-20.2,3.7-30.2c1.3-7.4-0.5-14.7-2.2-22c-2.8-12.1-5.2-24.3-7.6-36.5
		c-0.5-2.5-1.5-3.6-3.9-4.5c-8-2.8-15.9-6.2-23.9-8.7c-3-0.9-3.3-2.5-3.6-5c-0.5-4.7,1.3-9.6-1.4-14.1c-0.5-0.9,0-1.7,1.2-2.2
		c1.9-0.8,3.8-1.2,5.8-0.9c5.8,0.9,11.7,0.5,17.6-0.4c-1.6-8.3-3.3-16.6-4.7-24.9c-0.2-1.4-1.2-3.7,0.8-4.4c1.6-0.5,2.3,1.4,3.1,2.7
		c4.8,7.9,9.7,15.8,14.3,23.8c1.3,2.3,2.9,3.3,5.5,3.3c15.8-0.2,31.6-0.3,47.4-0.4c2,0,3.4-0.5,4.4-2.4c5-8.8,10.1-17.5,15.2-26.3
		c1-1.8,1.8-4.7,4.4-3.6c1.8,0.8,0.9,3.7,0.5,5.5c-1.4,7.8-3.5,15.4-4.4,23.4c-0.3,3,0.4,3.4,2.9,3.4c6.7-0.1,13.3,0,20-0.1
		c2.5,0,3.8,0.7,3.5,3.4c-0.1,1.3,0,2.7,0.1,4c0.5,8.9,1.2,9.9,9.8,12.4c14.3,4.1,29,6.6,43.7,8.7c1.7,0.2,4.4,0.2,4.2,2.2
		c-0.3,2.6-3.1,1.9-5,1.7c-15.8-2.4-31.5-5.2-47-9.5c-6.2-1.7-7.7-5.1-8.7-10c-0.2-0.8,0-1.7-0.1-2.5c-0.6-3.2-0.9-6-5.6-3.3
		c-5.7,3.3-12,5.8-18.1,8.7c-3.3,1.5-5.7,3.4-5.4,7.7c0.2,2.3-0.9,4.7-1.3,7.1c-1.2,6-1.7,6.7,5.2,7.7c11.5,1.6,23.2,2,34.8,3.3
		C427.2,315.4,449.4,316.2,450.2,316z M325.4,386.5c11,0.9,22,0.5,32.9,0.3c0.9,0.2,2,0.7,2.3-0.4c0.2-0.7-0.9-1.2-1.7-1.3
		c-2.1-1.5-4.1-3.1-6.3-4.5c-3.9-2.6-8.2-6.6-12.9-4.1c-5.1,2.7-10.5,5.3-14.3,9.9c-0.1,0.1-0.3,0.1-0.4,0.2
		C325.1,386.6,325.2,386.6,325.4,386.5z M341.6,330.1c2.7,0,5.4-0.4,7.9,0.1c5.3,0.9,6.9-2.5,8.5-6.3c0.9-2.2,0.5-3.3-2.4-3.9
		c-10.6-2.5-21-5.7-31.6-8.3c-2.2-0.5-4.9-3.7-6.3-1.7c-1.5,2.1,1,5.1,2.7,7.3c0.3,0.4,0.6,0.8,0.8,1.2
		C324.9,327.8,330.9,333.1,341.6,330.1z M312.4,291.3c-1,0.6-4-1.9-5,1.3c-0.6,2.1,6.4,12.1,8.8,12.8c11.6,3.3,23.1,6.7,34.8,9.8
		c2.8,0.7,5.5,1.9,8.5,2.2c3.1,0.3,2.7-2.2,3.5-3.6c1-1.6-0.7-2.4-2-2.5c-7-0.5-13.7-3.9-20.8-3c-5.2,0.7-8.9-1.8-12.2-5.1
		c-2.6-2.5-5.5-5.1-7-8.2C319.3,291.2,316.9,290.4,312.4,291.3z M277.4,285.9c0.5,2-1.3,5,2.4,6.4c7.2,2.6,14.3,5.4,21.4,8.3
		c2.2,0.9,2.4-0.3,2-1.8c-1.3-4.6-2-9.3-8-10.9c-4.2-1.1-8-3.8-11.9-5.8C277.4,279.3,277.4,279.3,277.4,285.9z M374.8,291
		c-7.4,1.1-15.5-3.4-19,6.8c-0.9,2.7-5.8,5.6-4.6,7.2c2.2,3,7.1,2.5,10.8,3.1c2.5,0.4,4.7-1,5.6-3.2
		C369.6,300.4,371.8,296,374.8,291z M341.8,354.4c4.5-5.8,5.9-12.8,9.9-18.5c1.3-1.9-0.9-1.9-2.1-1.9c-5.2,0-10.3,0-15.5-0.1
		c-3.1-0.1-2.6,1.2-1.7,3.3C335,342.9,338.2,348.2,341.8,354.4z M355.4,290.7c-10.3,0-19.8,0-29.4,0c-0.8,0-1.5,0.5-2.3,0.8
		c0.4,0.9,0.6,1.8,1.2,2.6c1,1.4,2.8,0.8,4.1,1.3c4.2,1.8,10.2,1.3,10.9,8c0.1,0.8,0.6,1.1,1.4,1.1c1.3-0.1,1.6-0.9,1.4-2
		c-0.7-4.4,3.8-7.1,5.6-6.7C352.7,296.6,353.6,294.1,355.4,290.7z M338.1,357.2c-7.4-6.7-13.6-12.4-19.9-18.1
		c-0.6-0.6-1.4-1.2-2.2-0.7c-0.9,0.4-0.6,1.4-0.5,2.2c0.9,4.5,2.1,8.9,2.8,13.4c0.4,2.3,1.4,3.2,3.5,3.2
		C326.7,357.2,331.7,357.2,338.1,357.2z M366,336.7c-6.4,6.4-12.2,12.2-17.9,18.2c-1.9,1.9-0.2,2.5,1.5,2.5c3.1,0.1,6.3,0,9.4,0.2
		c2.9,0.2,4-0.8,4.3-3.9C363.9,348.5,365,343.2,366,336.7z M324,329.8c-4.4-7.5-8.4-14.3-12.3-21.2c-0.6-1-1.3-1.6-2.3-1.3
		c-1.6,0.5-0.5,1.4-0.3,2.3c0.8,3.8,1.4,7.7,2.3,11.5C313.8,331.2,312.7,330.5,324,329.8z M329.6,405c3.6-3.1,5.1-7.3,8-10.5
		c0.8-0.9,1.6-2.4-0.4-2.5c-5.8-0.2-11.7-0.1-18.4-0.1c3.6,4.3,6.5,7.7,9.4,11.1C328.6,403.8,329.1,404.4,329.6,405z M348.2,392
		c9.5,14.8,9.5,14.8,17,2.9c0.1-0.1,0.3-0.2,0.4-0.3c1.4-1.9,0.6-2.6-1.5-2.6C359.1,392,354,392,348.2,392z M354.7,361.6
		c-8.1,0-15.3,0-22.8,0c6.8,8.2,11.3,8.9,19,3.3C352,364.1,352.9,363.2,354.7,361.6z M382.3,255.9c-4.8,4.2-7.2,9.8-10.3,14.9
		c-0.8,1.3,0.2,2.2,0.9,2.2c2.5,0,5.8,1.8,6.6-2.8C380.2,265.5,381.3,260.7,382.3,255.9z M318.4,334.6c4.9,4.4,9.5,8.6,14.8,13.4
		c0.2-4.2-2.8-5.6-3.4-8C328.3,333.9,324.2,333.3,318.4,334.6z M369.8,395.2c-3.2,2.4-4.2,5.8-6.3,8.5c-1.2,1.6-1.1,2.9,1.5,3.3
		c7.1,1.2,8.1,0.1,6.5-7.1C371.1,398.3,370.9,396.7,369.8,395.2z M298.6,258.8c0.4,2.8,0.2,4.9,0.9,6.6c0.8,2.1,0.4,4.3,1.2,6.3
		c1,2.2,2.9,3,5.3,2.5c1.7-0.4,1.5-1.7,1-2.7C304.7,267.3,303.3,262.5,298.6,258.8z M363.4,331c2.3-0.6,5.1-1,5-4.9
		c-0.1-2.3-0.4-4.1-3.1-3.9c-4.1,0.2-4.2,4.2-5.7,6.6C358.6,330.4,361.2,331.1,363.4,331z M316.5,396.3c-2.7,2.9-2.2,6.7-1.1,9.4
		c0.8,2,4.5,0.6,6.9,0.6c2.3,0,3.2-0.8,1.3-2.9C321.4,401,319.6,398.3,316.5,396.3z M345,287.3c1.6-0.6,4.8,1,4.7-1.7
		c-0.1-2.5-2.4-5.8-5-5.8c-2.9-0.1-4.3,3.9-4.6,6.1C339.7,288.1,343.1,286.9,345,287.3z M363.5,335.1c-7.1-2.2-8.5,1.9-10.3,5.5
		c-0.4,0.8-1.5,1.7-0.3,2.5c0.7,0.5,1.6,0,2.2-0.6C357.7,340.2,360.3,337.9,363.5,335.1z M310.3,280.4c-2,2.2-5.8,3.9-4.3,7
		c0.9,1.9,5.5,1.6,6.6,0.3C314.7,285.3,310.8,283.2,310.3,280.4z M386.7,276.5c3.3,5.1,7.4,4.9,11.5,0
		C394.5,276.5,390.9,276.5,386.7,276.5z M377.2,277.7c-3,0.1-6.4-2-8.6,0.6c-0.7,0.8,1.2,4.2,2.7,4.6
		C374.7,283.7,375.5,280.1,377.2,277.7z M331.6,277.5c1.5,2.2,1.5,5.9,4.4,5.5c2.4-0.3,3.3-3,3.6-5.5
		C336.7,277.5,334.2,277.5,331.6,277.5z M347.7,277.3c3.4,2,4,5.9,6.9,5.5c2-0.3,2.9-3.1,3.3-5.5C354.8,277.3,352,277.3,347.7,277.3
		z M321.8,286c3.3,0,6.1,0,9.1,0C327.8,278.6,327.6,278.6,321.8,286z M324.7,370.1c3.9,0.3,7.5,0.7,11.7-0.2
		C329.3,364.6,328.1,364.6,324.7,370.1z M349.5,370c2.5,1.7,4.7,1,6.8,1.1c1,0,2.6,0.7,2.8-1c0.2-1.7-1.1-2.7-2.7-3
		C353.7,366.5,351.8,368.2,349.5,370z M317.4,410.3c1.9,1.5,2.3,5,5.2,4.5c1.9-0.3,2-2.6,2.7-4.5C322.5,410.3,320,410.3,317.4,410.3
		z M368,285.6c-0.1-1.1-1-2.6-2.4-2.8c-1.6-0.1-2.4,1.8-2.8,3c-0.5,1.5,1,2.1,2.4,2.1C366.6,287.9,368,288.1,368,285.6z M370.5,315
		c0.3-0.7,1-1.7-0.8-1.8c-2.4-0.1-3.5,1.6-4.2,3.4c-0.6,1.5,0.7,2.3,2.2,2.5C371.1,319.5,370,316.8,370.5,315z M314.2,277.7
		c2.7,1.5,2.5,4.5,4.7,4.2c1.6-0.2,3.3-1.9,3.1-4.2C319.7,277.7,317.7,277.7,314.2,277.7z M362.7,411.1c4.5,5.3,5.2,5.3,7.4,0
		C367.7,411.1,365.4,411.1,362.7,411.1z M365.3,376.1c-1.5,0.4-2.3,1.9-2.8,3.4c-0.4,1.4,1,1.4,2,1.4c1.9,0.1,2.7-0.9,2.7-2.7
		C367.2,377.2,367,376.2,365.3,376.1z M295.9,284.6c0.4-2.9-0.3-4.5-2.4-5.3c-0.8-0.3-2.1,0.4-1.9,1.1
		C292.2,282.5,294.3,282.9,295.9,284.6z"/>
	<path class="st1" d="M570.4,227.3c-0.6,5.6-2.1,10.9-5.2,15.7c-6.6,10-24.1,8.8-32.9,3.8c-5.3-3-10.2-6.6-14.9-10.4
		c-2.1-1.7-3.5-2.2-6.2,0c-7.6,6.2-16.1,11-25.8,13.4c-15.8,4-25.6-9-27.2-20c-1.2-8.1-0.6-16.3,0.1-24.4c0.3-2.9-0.6-4-3-5
		c-9.7-4.3-18.7-9.6-25.5-18.1c-6.1-7.5-6.2-18.2,0-25.6c6.4-7.7,14.4-12.9,23.7-16.3c4.1-1.5,6.4-3.6,5.7-8.7
		c-1.1-7.9-1.6-16.2,0.5-23.8c5.2-17.8,16.6-21.5,35.9-14.4c6.3,2.3,12.2,5.9,17.3,10.4c1.9,1.6,3.1,1.8,5.5,0.2
		c7.6-5.3,15.1-10.8,24.7-12.7c14.9-2.8,24.3,2.8,28,17.9c2.1,8.6,1.9,17.1-0.3,25.4c-1,3.9,0.8,4.6,3.2,5.7
		c6.6,2.9,13.1,5.9,19,10.2c15.5,11.3,15.1,30.9-2.5,42c-5.4,3.4-11,6.4-17,8.6c-4.6,1.7-3.7,4.8-3.2,8.1
		C570.6,211.8,570.5,225.2,570.4,227.3z M514.6,208.4C514.6,208.3,514.6,208.3,514.6,208.4c4.8-0.1,9.6-0.2,14.5-0.1
		c4.2,0.1,7.5-1.3,10.1-4.8c6.3-8.7,10.9-18.3,16.3-27.5c2.4-4.1,1.4-8.1-0.4-12.2c-4.1-8.9-9.5-17-14.3-25.5
		c-2.5-4.4-6.6-5.6-10.5-5.9c-11.2-0.9-22.5-0.9-33.8,0.1c-1.4,0.1-2.5,0.5-3.4,1.7c-7.7,10.5-14.9,21.3-20.1,33.3
		c-0.8,1.9-0.5,3.1,0.2,5c3.1,9,8.3,16.8,13.2,24.8c3.1,5.2,5.9,11.6,13.9,11.2C505,208.2,509.8,208.4,514.6,208.4z M461.4,215.6
		c0.2,1.8,0.2,5.3,0.8,8.7c2.2,13,12,23.3,27.2,19.1c7-1.9,13.2-5.5,19.4-9.2c3-1.8,2.7-3.1,0.5-5.2c-5.3-5.1-10.2-10.4-14.5-16.3
		c-1.5-2.1-3.1-3.2-6-3.6c-5.6-0.6-11.2-1.9-16.7-3.4C461.4,202.9,461.4,202.8,461.4,215.6z M567.8,212.6c0-0.2,0-1.5-0.1-2.8
		c-0.5-6.3-0.6-6.4-6.9-4.4c-4.7,1.5-9.5,2.1-14.2,3.3c-3.8,1-8.5-1.1-11.4,3.2c-4.7,6.8-10.4,12.9-16.7,18.3
		c-1.6,1.4-1.9,1.8,0,3.2c8.7,6.5,17.5,12.1,29.1,11c6.9-0.7,12.5-3.4,15.5-9.7C566.1,228.1,567.9,221.1,567.8,212.6z M597.1,170.5
		c0.4-2.9-0.4-5.9-2-9c-5.2-9.8-14.4-14.4-23.8-18.8c-1.3-0.6-2-0.2-2.3,1.4c-1.7,8.8-5.1,17.1-8.5,25.4c-0.3,0.7-0.4,1.7-0.1,2.3
		c4,7.6,6,15.8,7.7,24.1c0.6,2.8,2.6,2.9,4.5,2c3.9-1.9,7.9-3.8,11.5-6.3C591.4,186.7,597.8,181,597.1,170.5z M432.2,169.4
		c0.4,1.9,0,3.6,0.7,5.5c4.2,11.4,13.8,17,23.7,22.2c2.2,1.2,3.3-0.1,4-2.5c2-6.8,4.4-13.5,6.7-20.2c0.8-2.4,2.7-4.6,1.3-7.5
		c-3.5-7.2-5.8-14.8-7.4-22.6c-0.6-2.8-1.6-3.3-4.5-2.1c-7.2,3.1-13.4,7.5-18.8,13.1C434,159.4,432,164,432.2,169.4z M462.6,126.3
		c0,2.3,0,4.6,0,7c0.1,2.2,0.7,3.4,3.4,2.6c5.6-1.8,11.5-2.3,17.2-3.6c3.7-0.8,8.1,0.6,11-3.3c4.8-6.5,10.4-12.5,16.4-18
		c2.2-2,2.1-3.7-0.4-5c-6.4-3.3-12-8.2-19.5-9.2c-9.6-1.2-18.4-0.4-24.2,9C462.4,112.2,462.9,119.3,462.6,126.3z M568.6,125.9
		c0.2-3.6-0.4-8-1.5-12.3c-3-12-11.8-18.3-23.4-17c-9.3,1-16.8,5.6-24.3,10.6c-1.9,1.3-1.1,1.7,0.1,2.8c6.2,5.6,11.7,11.8,16.5,18.5
		c1.8,2.6,4.2,3.7,6.9,3.9c5.1,0.4,9.9,1.6,14.8,3C568.5,138.4,568.5,138.3,568.6,125.9z M489.2,134.8c-0.7-2.2-2.4-1.3-3.9-1
		c-6.3,1.6-12.6,3.4-18.9,4.8c-2.9,0.7-3.7,1.9-2.8,4.8c1.8,5.9,3.3,12,5.1,17.9c0.3,1-0.3,2.9,1.7,3.1c2,0.2,2.5-1.8,2.9-2.8
		c3.7-8.3,9-15.6,13.8-23.1C487.9,137.4,488.4,136.2,489.2,134.8z M496,210.5c5.2,6.8,10.4,12.3,16.1,17.4c1.1,1,2.5,2.1,3.9,0.8
		c6-5.6,12.1-11,17.5-18.3C520.7,210.5,508.8,210.5,496,210.5z M540.3,134.3c7.7,10.6,13.1,21.5,19,33c3-8.7,5.5-16.3,7.2-24.2
		c0.3-1.6,0.7-2.6-1-3C557.2,138.2,549.3,135.2,540.3,134.3z M462.8,196.1c-0.2,2.9,0.9,4.5,3.6,5.2c6.1,1.6,12.2,3.3,18.4,4.9
		c1,0.3,2.6,0.7,3.2-0.4c0.6-1,0-2.1-0.6-3.2c-5.3-8.8-11.2-17.3-15.2-26.8c-0.4-0.9-0.7-1.4-1.7-1.4c-0.7,0-1.1,0.5-1.3,1.2
		C467.1,182.5,464.9,189.3,462.8,196.1z M530.7,130.7c1.2,0.9,2.1-0.1,2.7-0.5c0.9-0.6-0.1-1.5-0.5-2c-4.6-6.1-9.8-11.7-15.7-16.5
		c-1-0.8-2-1.6-3.7,0c-5.1,5-10.3,9.8-14.9,15.3c-0.7,0.9-2,1.7-1.1,2.9c0.4,0.6,1.8,0.7,2.7,0.5
		C510.5,128.9,520.6,129.4,530.7,130.7z M539.7,206.2c0.8,1.4,2.2,1.4,3.5,1.1c6.6-1.6,13.2-3.2,19.8-4.9c2.7-0.7,3.9-2.6,3-5.2
		c-2.2-6.4-2.9-13.3-5.8-19.6c-0.4-0.8,0-2-1.5-2.1c-1.9-0.1-1.3,1.4-1.8,2.3C551.7,187.5,546.4,197.3,539.7,206.2z"/>
	<path class="st1" d="M477.9,396.6c0-2.8,0.8-3.8,3.7-3.7c29.3,0.4,58.6,0.7,87.9,0.8c3.7,0,3.9,1.8,3.8,4.6
		c-0.2,19-0.2,37.9-0.6,56.9c-0.1,4.4,1.1,6.2,5.5,5.6c1.3-0.2,2.7,0.2,4,0c4.8-0.8,7.3,1.5,8.8,5.9c2.3,7.1,5.1,14.1,7.6,21.2
		c1.9,5.5,0.4,7.9-5.4,7.8c-43.9-0.4-87.9-0.8-131.8-1.3c-5.9-0.1-7.4-2.4-5.4-7.9c2.6-7,5.4-14,8-21c1.5-4,4-6.3,8.6-5.6
		c2.5,0.4,4.7-0.1,4.6-3.5c-0.1-9.8,0.2-20.2,0.2-30C478.2,422.7,477.8,403,477.9,396.6z M527.8,488.6c16.1,0,32.3,0,48.4,0
		c5.1,0,5.6-1,4.3-6c-1.2-5-4.1-9.2-5.5-14.1c-1-3.6-3.3-4.6-7-4.6c-26.4-0.1-52.9-0.3-79.3-0.9c-5.2-0.1-8,1.6-9.7,6.3
		c-1.3,3.5-3.1,6.8-4.6,10.3c-2.6,6.3-1.4,8.1,5.5,8.1C495.9,487.7,527.8,488.3,527.8,488.6z M525.2,396.7c-13,0-25.9,0.1-38.9-0.1
		c-3.7-0.1-4.9,0.9-4.9,4.7c0,16.9-0.1,33.9-0.5,50.8c-0.1,3.8,1.1,4.8,4.8,4.8c26.3,0.1,52.5,0.3,78.8,0.6c3.4,0,4.7-0.8,4.7-4.4
		c0-17.1,0.2-34.2,0.5-51.3c0.1-3.6-1.2-4.6-4.6-4.5C551.8,397.4,525.2,396.9,525.2,396.7z"/>
	<path class="st1" d="M527.9,344.4c-1.6,0.9-3.2,1.4-4.3,0.3c-1.4-1.4,0.8-2.1,1.2-3.3c1.8-5.8,6.1-9.2,12-9.2
		c2.1,0,3.7-0.9,5.6-1.6c1.6-0.6,3.1-1.9,5.2-1.2c0.3,1.3-0.7,1.9-1.4,2.7c-4.8,5.6-4.7,8.5,0.1,14.2c1.2,1.4,2.4,2.8,3.2,4.4
		c1.6,3.1,1,6.2-0.7,9c-1.8,3.1-4.4,0.6-6.2,0.1c-4.2-1.2-8-2.2-12.2,0c-1.1,0.6-3.1,0.8-4.1-0.6c-0.7-1-1.6-1.1-2.5-1.1
		c-10.6-0.5-13.1-3-14.6-13.9c-0.2-1.8-0.3-4.1-2.5-5c-1.2-0.5-3-0.4-2.4-2.3c0.6-1.9,2.6-2.4,4.3-2.7c1.8-0.4,2.1,1.6,2.3,2.6
		c0.7,3.4,0,6.8,1.1,10.3c1.9,6.2,3.4,7.8,8.8,7C526.9,353.4,527.9,352,527.9,344.4z"/>
	<path class="st0" d="M488.7,334.2c2.1-1.3,3.3-2.2,4.6-2.8c3.3-1.3,5.9,0.5,5.8,4.1c-0.2,6.9-0.4,13.8-1.1,20.7
		c-0.5,5.3,3.2,9.8,8.7,9.9c3.7,0,7.7-1.3,9.1,4.5c0.7,3.1,8.4,3.8,11.6,1.8c1.1-0.7,2.3-1.4,3.3-2.2c4.2-3.8,8.2-3.6,11.9,0.6
		c2.6,3,6.3,0.2,9.2,1.8c-3.7,4-9,4.9-13,2.2c-6.7-4.3-7.2-4.4-13.8,0.5c-3.6,2.6-7.1,3.9-11.4,1.8c-1.3-0.6-2.5-1.3-2.6-2.6
		c-0.5-5.7-4.3-5.3-8.4-5.2c-2.7,0.1-6.7,1.6-7.9-0.9c-1.7-3.4-3.9-7.3-2.3-11.6c1.5-4.2,0.6-8.8,1.6-13.2
		C494.8,339.8,495.6,334.9,488.7,334.2z"/>
	<path class="st0" d="M484.1,337.6c-4.7,3.5-10.8,3.8-14.8,0.3c-1.7-1.4-2.9-2.9-5.3-2.9c-1.2,0-1.9-1.3-1.8-2.6
		c0.4-6.8-1.5-13.4-1.1-20.3c0.2-3.1,1.8-3.4,4.1-3.6c3.1-0.3,2.3,1.8,2.4,3.6c0.1,3.8,0.4,7.6,0.6,11.4c0.2,3.5-1.6,8.3,5,7.7
		C474.9,336.5,480.5,334.9,484.1,337.6z"/>
	<path class="st1" d="M567,322.2c3.4-0.7,5.6,0.1,5.2,5.3c-0.3,3.6,1.9,7.2-0.6,10.9c-0.8,1.1,0.7,1.6,1.6,1.8
		c2,0.6,3.4,2.1,3.2,3.9c-0.3,2.2-2.2,3.5-4.1,4.7c-6,3.8-11-1-16.2-2.3c-2.9-0.7-1.9-5.5-2.7-8.4
		C551.2,329.8,557.6,322.1,567,322.2z M571.1,332.8c-0.1-3.1,0.2-7-2.6-8.3c-3.3-1.5-7.2-0.8-9.7,2.7c-0.5,0.7-1.3,1.1-1.9,1.6
		c-2.1,2-1.8,13.9,0.4,15.7c0.5,0.4,1.2,0.6,1.8,0.6c1.9,0.1,3.4,1.2,5,2.1c3.8,2.2,6.5-1.3,9.6-2.1c1.4-0.4,0.3-2.6-1.4-3.1
		c-3.2-0.9-4.2-2.6-1.9-5.4C571.3,335.5,571,334.1,571.1,332.8z"/>
	<path class="st0" d="M583,347.4c-0.7,5.5,0.8,10.8,1.2,16.3c0.3,5.5-2.5,11.3-7.3,13.5c-3.8,1.7-10.9,0-14.2-3.5
		c-1.5-1.5-2.8-3.3-5.2-3.5c-1-0.1-1.4-0.6-1.5-1.5c-0.1-1.2,0.7-1.8,1.7-2.1c3.8-1.3,6.2,0.8,8.5,3.4c3,3.5,9.3,4.4,12.7,2.3
		c1.5-1,2.6-2.1,2.5-4c-0.4-6.9,1.4-13.8-0.1-20.7C581.8,347.5,582.4,347.4,583,347.4z"/>
	<path class="st1" d="M521.4,330.3c-2.7-0.4-5.9-0.1-7.1-3.2c-0.8-2.3,3.3-6.2,5.9-6c4.4,0.4,3.7,4.6,4.6,7.2
		C525.7,331,522.7,329.7,521.4,330.3z"/>
	<path class="st0" d="M490.7,282.6c-3.3,6.5-6.8,13-12.6,17.7C481.5,293.8,485.1,287.5,490.7,282.6z"/>
	<path class="st0" d="M495.6,276.6c2.5-2.4,2.9-5.3,5.7-6.2C502,275.3,501.2,276.3,495.6,276.6z"/>
	<path class="st0" d="M727.1,499.7c2.4-0.2,3.4,0.8,3.8,3c0.9,5,1.3,10,2.8,14.8c0.7,2.3-0.1,4.5-3,5.3c-3.3,0.8-3.1-1.9-3.4-3.5
		c-1.3-5.7-2.2-11.5-3.3-17.3C723.5,499.2,725.9,500.1,727.1,499.7z"/>
	<path class="st0" d="M647.1,535.6c0,3.6,0.1,6,0,8.3c-0.1,2.1-1.9,2.7-3.5,2.8c-1.8,0.1-2.6-1.3-2.5-3c0.5-6.1-1.1-12.1-1.2-18.2
		c0-1.6-0.1-3,2.2-3c2,0,3.6,0.1,3.9,2.6C646.5,529.1,647.5,533,647.1,535.6z"/>
	<path class="st0" d="M475.2,537.2c0.9,3.4-1.2,7.5-1.1,11.8c0.1,2.4-2,3.6-3.9,3.6c-2.1,0-2.1-2.1-2.2-3.8
		c-0.1-6.1,0.4-12.2,1.1-18.2c0.3-2.1,1.4-3.6,3.3-3.6c1.9,0.1,3,1.6,2.8,3.8C475,532.7,475.2,534.5,475.2,537.2z"/>
	<path class="st0" d="M516.2,544.3c0-3.2-0.1-6.3,0-9.5c0.1-2.2,1.5-3.9,3.6-3.9c2.6-0.1,2.4,2.2,2.4,4c0,5.5-0.2,11-0.1,16.4
		c0,1.4-0.4,2.6-1.1,3.7c-0.7,1-2,2-3.3,1.5c-1.2-0.4-1.6-1.5-1.6-2.8C516.1,550.6,516.1,547.5,516.2,544.3
		C516.1,544.3,516.1,544.3,516.2,544.3z"/>
	<path class="st0" d="M341.3,500.7c-1.2,4.7-2.5,10.5-4.1,16.3c-0.4,1.5-1.1,3.2-3.4,2.7c-2-0.4-2.7-1.6-2.5-3.6
		c0.5-6.7,3-12.9,4.3-19.4c0.3-1.2,2-2.2,3.7-1.8C341.6,495.7,341.3,497.7,341.3,500.7z"/>
	<path class="st0" d="M602.5,542.5c-0.2-3.5-0.8-6.3-0.5-10.5c0.2-2.5,0.7-4.1,3.4-4.4c2.9-0.3,3.2,1.9,3.4,3.8
		c0.5,5.2,0.7,10.4,1.2,15.6c0.2,2.8-0.5,5.5-3.4,5.5c-3.3,0-3.4-3.2-3.5-5.9C603.2,545.9,602.4,543.4,602.5,542.5z"/>
	<path class="st0" d="M793.3,470.7c2.8,2.2,3.5,5.1,4.8,7.6c0.8,1.5-0.5,2.1-1.6,2.4c-1,0.2-2.8,0.6-2.5-1.2
		C794.5,476.7,792.6,474,793.3,470.7z"/>
	<path class="st1" d="M727.6,379.1c1.6,0,2.9-0.1,4.2,0c1.4,0.2,3.4-0.9,3.9,1c0.4,1.3-1.5,2-2.3,2.9c-1.9,2.1-2.4-0.4-3.3-1
		C729.2,381.3,727.9,381,727.6,379.1z"/>
	<path class="st1" d="M365.3,376.1c1.7,0,1.9,1,1.9,2.1c0,1.8-0.8,2.8-2.7,2.7c-1,0-2.3,0-2-1.4C362.9,378,363.8,376.5,365.3,376.1z
		"/>
	<path class="st2" d="M325.4,386.4c0,0-0.1,0.1-0.1,0.1c-0.1,0-0.3,0-0.4,0.1C325.1,386.5,325.3,386.5,325.4,386.4z"/>
	<path class="st1" d="M498.6,186.8c-3.3-4.4,0.3-8.3,1.8-11.6c4.3-9.6,9.2-18.9,7.7-30c-0.5-3.5,1.2-4.9,4.6-4.6
		c1.7,0.1,3.3,0.1,5,0c2.6-0.1,3.6,1.3,3.5,3.7c-0.1,1.8-0.1,3.6-0.2,5.5c-0.2,5.7,0.3,11.1,3.3,16.1c2.7,4.5,3.6,9.9,6.1,14.5
		c2.8,5.1,1.3,8.1-4.4,10c-1.7,0.6-3.4,1.3-5.3,1c0.1-0.7,0.3-1.3,0.4-2c1.9,0.5,3.6-0.4,5.2-1.2c1.5-0.7,3.2-1.8,3.2-3.5
		c0-1.9-2-2.5-3.4-3.2c-1-0.5-2.1-0.8-3.2-1.3c-0.8-0.4-1.6-1-3-1.8c7.6,0.6,8,0.3,5-5.8c-3.8-7.7-6.8-15.6-6.4-24.3
		c-1.8-2.8-4.4-1.2-6.7-1.1c-0.7,0-1.5,0.4-1.4,1.1c0.8,10.7-5.1,19.4-8.8,28.7c-1,2.5,0.5,2.3,2.2,1.9c4-1,8-1.8,12.1-1.6
		c1.1,0.1,2.4,0.4,2.4,1.3c0,1.3-1.3,1.5-2.5,1.5c-3.3,0-6.6-0.2-9.9,0.1c-3.5,0.4-6.7,1.6-6.9,6C499,186.5,498.8,186.6,498.6,186.8
		z"/>
	<path class="st1" d="M508,189.5c0.5,0.6,0.6,1.2,0.2,2c-4.1,0.4-7.3-1.2-9.6-4.6c0.2-0.1,0.4-0.3,0.6-0.4
		C502.2,187.1,504.6,189.7,508,189.5z"/>
	<path class="st0" d="M476.2,194.4c0.3,2.7-0.9,4.2-3.6,4c-2.5-0.2-4.5-1.3-4.4-4.2c0.1-2.6,2-3.6,4.3-3.7
		C475.3,190.3,476.6,191.6,476.2,194.4z"/>
	<path class="st0" d="M519.1,121.5c0.6,3.1-1.5,4.7-3.8,4.8c-2.2,0-4.3-1.3-4.3-4.4c0-2.9,2.3-3.9,4.1-4
		C516.8,117.8,519.8,118.2,519.1,121.5z"/>
	<path class="st0" d="M559.1,195.3c0.4,3-1.6,4-3.8,4c-2.6,0-4.3-1.6-4.2-4.3c0.1-2.6,2.1-3.4,4.5-3.6
		C558.6,191.2,559.3,192.8,559.1,195.3z"/>
	<path class="st0" d="M527.3,481.9c0.2,2.7-0.7,3.9-3.7,3.8c-3.1,0-3.7-1.5-3.3-4.1c0.5-4.1,1.4-8.1,1.2-12.3
		c-0.1-2.4,1.5-2.5,3.3-2.5c1.8,0,2.8,0.6,2.8,2.5c-0.1,2.2,0,4.3,0,6.5C527.4,475.9,527.1,479.9,527.3,481.9z"/>
	<path class="st0" d="M488.8,467.1c-1.5,5-3.2,9.9-4.5,14.9c-0.5,2-1.8,2.6-3.2,3.3c-1.2,0.7-2.2,0.6-3.1-0.3
		c-0.9-0.9-0.5-1.6-0.1-2.6c1.2-3.3,2.3-6.8,3.3-10.2C482.8,466.8,482.8,466.8,488.8,467.1z"/>
	<path class="st0" d="M515.8,467.9c1.7,0,3.9-0.1,3.1,2c-1.6,4.6-0.2,9.5-1.7,14.1c-0.6,1.9-1.3,2.9-3.3,2.8
		c-2.1-0.1-2.8-1.2-2.8-3.2c0-4.4,1-8.7,1.7-13.1C513.1,468.6,513.9,467.4,515.8,467.9z"/>
	<path class="st0" d="M497,467c2.6-0.5,3.7,0.4,3.1,2.9c-1,4.5-2,8.9-2.9,13.4c-0.5,2.4-2.1,2.9-4,2.5c-2.1-0.4-2.2-2.2-1.9-3.9
		c0.9-4.1,2.1-8.2,2.7-12.3C494.3,467.3,495,466.4,497,467z"/>
	<path class="st0" d="M565.5,467.9c1.6-0.3,2.7,0.4,3.2,2.1c1.4,4.5,2.9,9,4.2,13.5c0.3,1.1,1,2.9-0.9,3.3c-1.7,0.4-3.7,0.7-4.5-1.7
		c-1.5-4.6-2.8-9.4-4.7-13.9C561.4,467.7,563.1,467.8,565.5,467.9z"/>
	<path class="st0" d="M559.1,483.6c-0.3,1.1,0.7,2.8-1.3,3.1c-1.6,0.2-3.5,0.5-4.1-1.6c-1.3-5.2-2.4-10.4-3.5-15.6
		c-0.3-1.4,0.8-1.6,1.8-1.6c1.9-0.1,4.1-0.5,4.7,2.2C557.6,474.6,558.3,479.1,559.1,483.6z"/>
	<path class="st0" d="M510.1,471c-0.8,3.3-2.1,7.5-2.9,11.7c-0.6,3-3.1,2.9-4.7,2.7c-1.9-0.3-1.5-2.5-1.2-4.2
		c0.9-3.9,2.1-7.8,2.6-11.8c0.4-3.2,2.4-2.5,4.2-2.6C510.6,466.8,510.1,468.6,510.1,471z"/>
	<path class="st0" d="M549.3,481.8c-0.3,2.2,0.4,4.1-2.3,4.1c-2,0-3.5-0.2-3.9-2.7c-0.7-4.1-1.9-8.2-2.7-12.3c-0.2-1.1-1-3,1.2-3
		c1.6,0,3.9-1.3,4.6,1.3C547.4,473.6,548.4,478,549.3,481.8z"/>
	<path class="st0" d="M537.2,479.8c0,0.1,0.1,1.1,0,2c-0.3,1.5,1.3,3.9-1.9,4.1c-2.4,0.1-3.7-1.5-4-3.5c-0.6-3.7-0.8-7.5-1.1-11.2
		c-0.1-1.6-0.6-3.4,2.2-3.4c2,0,3.5-0.2,4,2.8C536.8,473.4,536.9,476.1,537.2,479.8z"/>
	<path class="st0" d="M505.7,401.9c1.5-0.1,3-0.1,4.5-0.2c0.1,0.7,0.4,1.2,1.1,1c0.3-0.1,0.4-0.6,0.7-1c12.9,0.2,25.9,0.4,38.8,0.5
		c8.1,0.1,11.5,3.4,11.4,11.4c0,10-0.1,19.9-0.2,29.9c-0.1,8-3.6,11.3-11.7,11.3c-16.6,0-33.2,0-49.8-0.1c-0.3-0.6-0.6-1.2-0.8-1.8
		c2.4-2.5,2.4-6,3.3-9.1c3.5-12.7,3.4-12.7-10.3-11.8c-2.8,0.2-3.6,1.2-3.7,3.9c-0.3,6.4-0.1,12.5,5.4,17c-0.1,0.4-0.2,0.7-0.3,1.1
		c-4.2-1.7-6.5-4.8-6.5-9.4c0.1-11.1,0.1-22.2,0.3-33.3c0.1-5.9,3.6-9.3,9.6-9.4c2.6-0.1,5.3,0,8,0.1c0,0.2,0.1,0.5,0.1,0.7
		C505.7,402.4,505.7,402.1,505.7,401.9z M524.7,437c0.7,6,1.3,6.2,6.3,3.4c0.7-0.4,1.4-0.8,2.1-1.2c2.5-1.6,4.3-2,4,2
		c-0.2,3.5,1.5,3,3.6,1.6c2.8-1.9,5.7-3.7,9.2-6c0,5,0.1,9.1,0,13.2c-0.1,3.2,1.3,3.8,4,2.9c2-0.6,3.7-1.7,4.6-3.6
		c2.6-4.8,1.3-10.1,1.3-15.2c0-1.5-1.7-1.3-2.8-1.3c-14.9-0.2-29.9-0.4-44.8-0.7c-2.1,0-3.2,0.5-2.3,2.9c0.6,1.7,0.8,3.5,1.2,5.2
		c0.7,3,2.2,3.1,4.6,1.7C518.6,440.3,521.1,438,524.7,437z"/>
	<path class="st0" d="M494.2,454c0.1-0.4,0.2-0.7,0.3-1.1c1.8,0,3.5,0,5.3,0c0.3,0.6,0.6,1.2,0.8,1.8
		C498.5,454.7,496.2,455.7,494.2,454z"/>
	<path class="st0" d="M512,401.7c-0.2,0.3-0.4,0.9-0.7,1c-0.7,0.2-1-0.3-1.1-1C510.5,401.3,511.7,401.7,512,401.7
		C512.3,401.7,511.7,401.3,512,401.7z"/>
	<path class="st0" d="M505.7,401.9c0,0.2-0.1,0.5-0.1,0.7c0-0.2-0.1-0.5-0.1-0.7C505.5,401.9,505.7,401.9,505.7,401.9z"/>
	<path class="st1" d="M304.4,54c-1.3,8.6-7.8,47.1-9.6,58.6c-0.5,3.4,0.4,4.2,3.6,3.2c8.6-2.9,17.3-5.8,26-8.3c3.4-1,3.3-2.5,2.1-5
		c-3.7-7.4-15.7-34.1-18.7-40.5C307.1,60.3,306,56.8,304.4,54z"/>
</g>
</svg>
